# /tmp/binarydeb/ros-indigo-pr2-description-1.11.14/meshes/base_v0/convex/base_L.obj created by IVCON.
# Original data in /tmp/binarydeb/ros-indigo-pr2-description-1.11.14/meshes/base_v0//base_L.stl.

g IVCON

v -0.190753 0.299458 0.230193
v -0.219929 -0.240778 0.262827
v -0.190753 -0.299458 0.230193
v -0.219929 0.240778 0.262827
v -0.254598 0.222413 0.370397
v -0.254598 -0.209797 0.656175
v -0.254598 -0.222413 0.370397
v -0.254598 0.209797 0.656175
v -0.325830 0.209797 0.656175
v -0.334121 -0.168770 0.656175
v -0.325830 -0.209797 0.656175
v 0.270455 0.334121 0.000000
v 0.334121 0.268782 0.000000
v -0.270455 0.334121 0.000000
v -0.334121 0.268782 0.000000
v -0.270455 -0.334121 0.000000
v 0.334121 -0.268782 0.000000
v 0.270455 -0.334121 0.000000
v -0.334121 0.268782 0.230193
v -0.334121 -0.268782 0.000000
v 0.202369 0.046282 0.294941
v 0.159401 0.046282 0.230193
v 0.159401 -0.046282 0.230193
v 0.302369 0.046282 0.294941
v 0.302369 -0.046282 0.294941
v 0.302369 -0.046282 0.230193
v 0.202369 -0.046282 0.294941
v -0.310623 0.240897 0.230193
v -0.334121 -0.268782 0.230193
v -0.310623 -0.240897 0.230193
v 0.302369 0.046282 0.230193
v 0.334121 -0.268782 0.230193
v 0.334121 0.268782 0.230193
v -0.324902 -0.178918 0.370397
v -0.324902 0.178918 0.370397
v -0.315683 0.193692 0.262827
v -0.334121 0.168770 0.656175
v -0.315683 -0.193692 0.262827
v 0.270455 0.334121 0.230193
v -0.270455 0.334121 0.230193
v -0.299891 0.240778 0.262827
v -0.316611 0.222413 0.370397
v -0.277019 0.299458 0.230193
v -0.190231 0.334121 0.230193
v 0.270455 -0.334121 0.230193
v -0.270455 -0.334121 0.230193
v -0.299891 -0.240778 0.262827
v -0.316611 -0.222413 0.370397
v -0.277019 -0.299458 0.230193
v -0.190231 -0.334121 0.230193

vn 0.745492 0.000000 0.666515
vn 0.745492 0.000000 0.666515
vn 0.745492 -0.000000 0.666515
vn 0.951788 0.000000 0.306756
vn 0.951788 0.000000 0.306756
vn 0.951788 -0.000000 0.306756
vn 1.000000 0.000000 0.000000
vn 1.000000 0.000000 0.000000
vn 1.000000 0.000000 0.000000
vn 1.000000 -0.000000 0.000000
vn 1.000000 0.000000 0.000000
vn 1.000000 0.000000 0.000000
vn 0.000000 0.000000 1.000000
vn -0.000000 0.000000 1.000000
vn 0.000000 -0.000000 1.000000
vn -0.000000 -0.000000 -1.000000
vn 0.000000 0.000000 -1.000000
vn 0.000000 0.000000 -1.000000
vn 0.000000 -0.000000 -1.000000
vn 0.000000 0.000000 -1.000000
vn 0.000000 0.000000 -1.000000
vn 0.000000 0.000000 -1.000000
vn -0.000000 0.000000 -1.000000
vn 0.000000 0.000000 -1.000000
vn 0.000000 0.000000 -1.000000
vn 0.000000 0.000000 -1.000000
vn 0.000000 0.000000 -1.000000
vn -1.000000 0.000000 -0.000000
vn -1.000000 0.000000 0.000000
vn -1.000000 0.000000 0.000000
vn -0.833225 0.000000 0.552933
vn -0.833225 0.000000 0.552933
vn -0.833225 0.000000 0.552933
vn 1.000000 0.000000 0.000000
vn 1.000000 -0.000000 0.000000
vn 1.000000 0.000000 0.000000
vn 0.000000 0.000000 1.000000
vn 0.000000 0.000000 1.000000
vn 0.000000 0.000000 1.000000
vn 0.000000 0.000000 1.000000
vn 0.000000 0.000000 1.000000
vn 0.000000 0.000000 1.000000
vn 0.000000 0.000000 1.000000
vn 0.000000 0.000000 1.000000
vn 0.000000 -0.000000 1.000000
vn 0.000000 0.000000 1.000000
vn 0.000000 0.000000 1.000000
vn 0.000000 0.000000 1.000000
vn 1.000000 0.000000 0.000000
vn 1.000000 0.000000 0.000000
vn 1.000000 0.000000 -0.000000
vn -0.833225 0.000000 0.552933
vn -0.833225 0.000000 0.552933
vn -0.833225 0.000000 0.552933
vn 0.000000 0.000000 1.000000
vn -0.000000 0.000000 1.000000
vn 0.000000 -0.000000 1.000000
vn -0.000000 0.000000 1.000000
vn 0.000000 -0.000000 1.000000
vn 0.000000 0.000000 1.000000
vn -0.999480 0.000000 -0.032243
vn -0.999480 0.000000 -0.032243
vn -0.999480 -0.000000 -0.032243
vn -0.996347 0.000000 -0.085392
vn -0.996347 -0.000000 -0.085392
vn -0.996347 0.000000 -0.085392
vn -0.999480 0.000000 -0.032243
vn -0.999480 -0.000000 -0.032243
vn -0.999480 0.000000 -0.032243
vn -0.988192 0.000000 -0.153218
vn -0.988192 -0.000000 -0.153218
vn -0.988192 0.000000 -0.153218
vn 0.745492 0.000000 0.666515
vn 0.745492 0.000000 0.666515
vn 0.745492 -0.000000 0.666515
vn -1.000000 0.000000 0.000000
vn -1.000000 -0.000000 0.000000
vn -1.000000 0.000000 0.000000
vn -0.988192 -0.000000 -0.153218
vn -0.988192 0.000000 -0.153218
vn -0.988192 0.000000 -0.153218
vn 0.716221 0.697874 0.000000
vn 0.716221 0.697874 0.000000
vn 0.716221 0.697874 -0.000000
vn -0.716221 0.697874 0.000000
vn -0.716221 0.697874 0.000000
vn -0.716221 0.697874 0.000000
vn -0.904830 0.303458 0.298655
vn -0.904830 0.303458 0.298655
vn -0.904830 0.303458 0.298655
vn -0.979888 0.198031 -0.024578
vn -0.979888 0.198031 -0.024578
vn -0.979888 0.198031 -0.024578
vn -0.980636 0.186941 -0.058370
vn -0.980636 0.186941 -0.058370
vn -0.980636 0.186941 -0.058370
vn -0.944021 0.316602 -0.092673
vn -0.944021 0.316602 -0.092673
vn -0.944021 0.316602 -0.092673
vn -0.982041 0.187209 -0.023416
vn -0.982041 0.187209 -0.023416
vn -0.982041 0.187209 -0.023416
vn 0.000000 0.000000 1.000000
vn 0.000000 0.000000 1.000000
vn 0.000000 0.000000 1.000000
vn 0.000000 1.000000 0.000000
vn -0.000000 1.000000 0.000000
vn 0.000000 1.000000 0.000000
vn 0.000000 0.000000 1.000000
vn 0.000000 0.000000 1.000000
vn 0.000000 -0.000000 1.000000
vn 0.000000 1.000000 -0.000000
vn 0.000000 1.000000 0.000000
vn 0.000000 1.000000 0.000000
vn 0.000000 -0.000000 1.000000
vn 0.000000 0.000000 1.000000
vn -0.000000 0.000000 1.000000
vn 0.000000 0.000000 1.000000
vn 0.000000 -0.000000 1.000000
vn 0.000000 0.000000 1.000000
vn -0.000000 0.000000 1.000000
vn 0.000000 -0.000000 1.000000
vn 0.000000 0.000000 1.000000
vn -0.000000 0.000000 1.000000
vn 0.000000 0.000000 1.000000
vn 0.000000 0.000000 1.000000
vn 0.716221 0.697874 -0.000000
vn 0.716221 0.697874 0.000000
vn 0.716221 0.697874 0.000000
vn 0.000000 1.000000 -0.000000
vn 0.000000 1.000000 0.000000
vn 0.000000 1.000000 0.000000
vn -0.716221 0.697874 0.000000
vn -0.716221 0.697874 0.000000
vn -0.716221 0.697874 0.000000
vn -0.833679 0.478393 0.275897
vn -0.833679 0.478393 0.275897
vn -0.833679 0.478393 0.275897
vn -0.000000 0.486031 0.873942
vn 0.000000 0.486031 0.873942
vn 0.000000 0.486031 0.873942
vn 0.000000 1.000000 0.000000
vn -0.000000 1.000000 0.000000
vn 0.000000 1.000000 0.000000
vn -0.000000 0.486031 0.873942
vn 0.000000 0.486031 0.873942
vn 0.000000 0.486031 0.873942
vn -0.000000 0.985737 0.168295
vn 0.000000 0.985737 0.168295
vn 0.000000 0.985737 0.168295
vn -0.000000 0.985737 0.168295
vn 0.000000 0.985737 0.168295
vn 0.000000 0.985737 0.168295
vn 0.000000 0.999027 0.044102
vn -0.000000 0.999027 0.044102
vn 0.000000 0.999027 0.044102
vn -0.000000 0.999027 0.044102
vn 0.000000 0.999027 0.044102
vn 0.000000 0.999027 0.044102
vn 0.000000 0.000000 1.000000
vn 0.000000 0.000000 1.000000
vn 0.000000 -0.000000 1.000000
vn 0.716221 -0.697874 0.000000
vn 0.716221 -0.697874 0.000000
vn 0.716221 -0.697874 0.000000
vn -0.716221 -0.697874 0.000000
vn -0.716221 -0.697874 0.000000
vn -0.716221 -0.697874 -0.000000
vn -0.904830 -0.303458 0.298655
vn -0.904830 -0.303458 0.298655
vn -0.904830 -0.303458 0.298655
vn -0.979888 -0.198031 -0.024578
vn -0.979888 -0.198031 -0.024578
vn -0.979888 -0.198031 -0.024578
vn -0.980636 -0.186941 -0.058370
vn -0.980636 -0.186941 -0.058370
vn -0.980636 -0.186941 -0.058370
vn -0.944021 -0.316602 -0.092673
vn -0.944021 -0.316602 -0.092673
vn -0.944021 -0.316602 -0.092673
vn -0.982041 -0.187209 -0.023416
vn -0.982041 -0.187209 -0.023416
vn -0.982041 -0.187209 -0.023416
vn 0.000000 -0.000000 1.000000
vn 0.000000 0.000000 1.000000
vn 0.000000 0.000000 1.000000
vn -0.000000 -1.000000 0.000000
vn 0.000000 -1.000000 -0.000000
vn 0.000000 -1.000000 0.000000
vn 0.000000 0.000000 1.000000
vn -0.000000 0.000000 1.000000
vn 0.000000 0.000000 1.000000
vn 0.000000 -1.000000 -0.000000
vn 0.000000 -1.000000 0.000000
vn 0.000000 -1.000000 0.000000
vn -0.000000 0.000000 1.000000
vn 0.000000 0.000000 1.000000
vn 0.000000 0.000000 1.000000
vn 0.000000 0.000000 1.000000
vn 0.000000 0.000000 1.000000
vn 0.000000 0.000000 1.000000
vn 0.000000 0.000000 1.000000
vn 0.000000 0.000000 1.000000
vn -0.000000 0.000000 1.000000
vn 0.000000 0.000000 1.000000
vn 0.000000 0.000000 1.000000
vn 0.000000 -0.000000 1.000000
vn 0.716221 -0.697874 0.000000
vn 0.716221 -0.697874 0.000000
vn 0.716221 -0.697874 0.000000
vn 0.000000 -1.000000 -0.000000
vn 0.000000 -1.000000 0.000000
vn 0.000000 -1.000000 0.000000
vn -0.716221 -0.697874 0.000000
vn -0.716221 -0.697874 0.000000
vn -0.716221 -0.697874 -0.000000
vn -0.833679 -0.478393 0.275897
vn -0.833679 -0.478393 0.275897
vn -0.833679 -0.478393 0.275897
vn 0.000000 -0.486031 0.873942
vn 0.000000 -0.486031 0.873942
vn 0.000000 -0.486031 0.873942
vn -0.000000 -1.000000 0.000000
vn 0.000000 -1.000000 -0.000000
vn 0.000000 -1.000000 0.000000
vn 0.000000 -1.000000 0.000000
vn -0.000000 -1.000000 0.000000
vn 0.000000 -1.000000 0.000000
vn 0.000000 -0.486031 0.873942
vn 0.000000 -0.486031 0.873942
vn 0.000000 -0.486031 0.873942
vn 0.000000 -0.985737 0.168295
vn 0.000000 -0.985737 0.168295
vn 0.000000 -0.985737 0.168295
vn 0.000000 -0.985737 0.168295
vn 0.000000 -0.985737 0.168295
vn 0.000000 -0.985737 0.168295
vn 0.000000 -0.999027 0.044102
vn 0.000000 -0.999027 0.044102
vn 0.000000 -0.999027 0.044102
vn 0.000000 -0.999027 0.044102
vn 0.000000 -0.999027 0.044102
vn 0.000000 -0.999027 0.044102
vn 0.000000 0.000000 1.000000
vn -0.000000 0.000000 1.000000
vn 0.000000 0.000000 1.000000
vn 0.000000 0.000000 1.000000
vn 0.000000 0.000000 1.000000
vn 0.000000 -0.000000 1.000000
vn 0.951788 0.000000 0.306756
vn 0.951788 -0.000000 0.306756
vn 0.951788 0.000000 0.306756
vn 0.000000 0.000000 1.000000
vn 0.000000 0.000000 1.000000
vn 0.000000 -0.000000 1.000000
vn 0.000000 0.000000 1.000000
vn -0.000000 0.000000 1.000000
vn 0.000000 0.000000 1.000000
vn 0.000000 0.000000 1.000000
vn -0.000000 0.000000 1.000000
vn 0.000000 0.000000 1.000000
vn 0.000000 0.000000 -1.000000
vn 0.000000 0.000000 -1.000000
vn 0.000000 0.000000 -1.000000
vn 0.000000 0.000000 -1.000000
vn 0.000000 -0.000000 -1.000000
vn -0.000000 0.000000 -1.000000
vn 1.000000 0.000000 0.000000
vn 1.000000 -0.000000 0.000000
vn 1.000000 0.000000 -0.000000
vn 1.000000 0.000000 0.000000
vn 1.000000 0.000000 0.000000
vn 1.000000 0.000000 0.000000
vn -0.000000 0.000000 1.000000
vn 0.000000 0.000000 1.000000
vn 0.000000 0.000000 1.000000
vn 0.000000 0.000000 1.000000
vn 0.000000 0.000000 1.000000
vn 0.000000 -0.000000 1.000000
vn -0.996347 0.000000 -0.085392
vn -0.996347 0.000000 -0.085392
vn -0.996347 -0.000000 -0.085392
vn 0.000000 1.000000 0.000000
vn 0.000000 1.000000 0.000000
vn -0.000000 1.000000 0.000000
vn 0.000000 0.000000 1.000000
vn 0.000000 0.000000 1.000000
vn -0.000000 0.000000 1.000000

f 1//1 2//2 3//3
f 4//4 5//5 2//6
f 6//7 7//8 5//9
f 6//10 5//11 8//12
f 9//13 10//14 11//15
f 12//16 13//17 14//18
f 14//19 13//20 15//21
f 15//22 13//23 16//24
f 16//25 17//26 18//27
f 19//28 15//29 20//30
f 21//31 22//32 23//33
f 24//34 25//35 26//36
f 21//37 27//38 25//39
f 28//40 19//41 29//42
f 28//43 29//44 30//45
f 22//46 1//47 3//48
f 24//49 26//50 31//51
f 23//52 27//53 21//54
f 24//55 21//56 25//57
f 26//58 32//59 33//60
f 34//61 10//62 35//63
f 34//64 35//65 36//66
f 10//67 37//68 35//69
f 38//70 28//71 30//72
f 1//73 4//74 2//75
f 29//76 19//77 20//78
f 36//79 28//80 38//81
f 39//82 33//83 13//84
f 40//85 14//86 19//87
f 36//88 41//89 28//90
f 35//91 37//92 9//93
f 35//94 42//95 36//96
f 36//97 42//98 41//99
f 35//100 9//101 42//102
f 22//103 33//104 39//105
f 22//106 21//107 24//108
f 33//109 22//110 31//111
f 31//112 22//113 24//114
f 28//115 43//116 19//117
f 19//118 43//119 40//120
f 1//121 22//122 39//123
f 44//124 1//125 39//126
f 12//127 39//128 13//129
f 12//130 14//131 39//132
f 19//133 14//134 15//135
f 28//136 41//137 43//138
f 43//139 4//140 1//141
f 14//142 44//143 39//144
f 41//145 4//146 43//147
f 42//148 5//149 4//150
f 41//151 42//152 4//153
f 5//154 9//155 8//156
f 42//157 9//158 5//159
f 44//160 43//161 1//162
f 17//163 32//164 45//165
f 29//166 16//167 46//168
f 30//169 47//170 38//171
f 11//172 10//173 34//174
f 38//175 48//176 34//177
f 47//178 48//179 38//180
f 48//181 11//182 34//183
f 45//184 32//185 23//186
f 25//187 27//188 23//189
f 26//190 23//191 32//192
f 25//193 23//194 26//195
f 29//196 49//197 30//198
f 46//199 49//200 29//201
f 45//202 23//203 3//204
f 45//205 3//206 50//207
f 17//208 45//209 18//210
f 45//211 16//212 18//213
f 20//214 16//215 29//216
f 49//217 47//218 30//219
f 3//220 2//221 49//222
f 45//223 50//224 16//225
f 16//226 50//227 46//228
f 49//229 2//230 47//231
f 2//232 7//233 48//234
f 2//235 48//236 47//237
f 6//238 11//239 7//240
f 7//241 11//242 48//243
f 3//244 49//245 50//246
f 50//247 49//248 46//249
f 5//250 7//251 2//252
f 8//253 11//254 6//255
f 8//256 9//257 11//258
f 9//259 37//260 10//261
f 15//262 16//263 20//264
f 16//265 13//266 17//267
f 33//268 32//269 13//270
f 13//271 32//272 17//273
f 31//274 26//275 33//276
f 22//277 3//278 23//279
f 38//280 34//281 36//282
f 44//283 14//284 40//285
f 43//286 44//287 40//288

