# /tmp/binarydeb/ros-indigo-pr2-description-1.11.14/meshes/shoulder_v0/convex/upper_arm_roll_L.obj created by IVCON.
# Original data in /tmp/binarydeb/ros-indigo-pr2-description-1.11.14/meshes/shoulder_v0//upper_arm_roll_L.stl.

g IVCON

v 0.121370 -0.030072 0.067006
v 0.121370 0.030072 0.067006
v 0.121370 0.030072 0.052994
v 0.121370 -0.030072 0.052994
v 0.140370 -0.030072 0.052994
v 0.140370 -0.030072 0.067006
v 0.140370 0.030072 0.052994
v 0.140370 0.030072 0.067006
v 0.121370 -0.030072 -0.067006
v 0.121370 -0.030072 -0.052994
v 0.121370 0.030072 -0.052994
v 0.121370 0.030072 -0.067006
v 0.140370 0.030072 -0.052994
v 0.140370 0.030072 -0.067006
v 0.140370 -0.030072 -0.067006
v 0.140370 -0.030072 -0.052994
v 0.121370 0.056859 0.044551
v 0.118870 0.068741 0.022630
v 0.118870 0.057885 0.043060
v 0.118870 0.044551 0.056859
v 0.118870 0.022630 0.068741
v 0.121370 0.022630 0.068741
v 0.118870 -0.072178 0.000000
v 0.121370 -0.072178 -0.000000
v 0.118870 -0.068741 0.022630
v 0.118870 -0.022630 0.068741
v 0.121370 0.000000 0.072178
v 0.118870 -0.000000 0.072178
v 0.118870 0.072178 0.000000
v 0.121370 0.068741 0.022630
v 0.121370 -0.022630 0.068741
v 0.121370 -0.044551 0.056859
v 0.118870 -0.043060 0.057885
v 0.118870 -0.056859 0.044551
v 0.121370 -0.068741 0.022630
v 0.121370 -0.057885 0.043060
v 0.121370 0.043060 0.057885
v 0.121370 0.072178 0.000000
v 0.118870 -0.044551 -0.056859
v 0.121370 -0.056859 -0.044551
v 0.121370 0.056859 -0.044551
v 0.118870 0.056859 -0.044551
v 0.118870 -0.068741 -0.022630
v 0.118870 0.000000 -0.072178
v 0.118870 -0.022630 -0.068741
v 0.118870 0.043060 -0.057885
v 0.118870 0.022630 -0.068741
v 0.118870 0.068741 -0.022630
v 0.118870 -0.057885 -0.043060
v 0.121370 -0.068741 -0.022630
v 0.121370 -0.043060 -0.057885
v 0.121370 -0.022630 -0.068741
v 0.121370 0.022630 -0.068741
v 0.121370 0.043060 -0.057885
v 0.121370 0.068741 -0.022630
v 0.121370 0.000000 -0.072178

vn -1.000000 0.000000 0.000000
vn -1.000000 -0.000000 -0.000000
vn -1.000000 0.000000 0.000000
vn -1.000000 0.000000 0.000000
vn -1.000000 0.000000 0.000000
vn -1.000000 0.000000 0.000000
vn 0.000000 -1.000000 0.000000
vn 0.000000 -1.000000 0.000000
vn 0.000000 -1.000000 0.000000
vn 0.000000 -1.000000 0.000000
vn 0.000000 -1.000000 0.000000
vn -0.000000 -1.000000 -0.000000
vn 0.000000 1.000000 0.000000
vn 0.000000 1.000000 0.000000
vn 0.000000 1.000000 0.000000
vn 0.000000 1.000000 -0.000000
vn -0.000000 1.000000 0.000000
vn 0.000000 1.000000 0.000000
vn 0.000000 0.000000 1.000000
vn 0.000000 0.000000 1.000000
vn 0.000000 -0.000000 1.000000
vn 0.000000 0.000000 1.000000
vn 0.000000 0.000000 1.000000
vn -0.000000 0.000000 1.000000
vn 0.000000 0.000000 -1.000000
vn 0.000000 0.000000 -1.000000
vn -0.000000 0.000000 -1.000000
vn 0.000000 0.000000 -1.000000
vn 0.000000 0.000000 -1.000000
vn 0.000000 -0.000000 -1.000000
vn 1.000000 0.000000 0.000000
vn 1.000000 0.000000 0.000000
vn 1.000000 0.000000 0.000000
vn 1.000000 0.000000 0.000000
vn 1.000000 -0.000000 0.000000
vn 1.000000 0.000000 -0.000000
vn -1.000000 0.000000 0.000000
vn -1.000000 0.000000 0.000000
vn -1.000000 -0.000000 0.000000
vn -1.000000 0.000000 0.000000
vn -1.000000 0.000000 -0.000000
vn -1.000000 0.000000 0.000000
vn 0.000000 1.000000 0.000000
vn 0.000000 1.000000 0.000000
vn 0.000000 1.000000 -0.000000
vn 0.000000 1.000000 0.000000
vn -0.000000 1.000000 0.000000
vn 0.000000 1.000000 0.000000
vn -0.000000 0.000000 -1.000000
vn 0.000000 0.000000 -1.000000
vn 0.000000 0.000000 -1.000000
vn 0.000000 0.000000 -1.000000
vn 0.000000 0.000000 -1.000000
vn 0.000000 -0.000000 -1.000000
vn 0.000000 0.000000 1.000000
vn 0.000000 0.000000 1.000000
vn 0.000000 -0.000000 1.000000
vn -0.000000 0.000000 1.000000
vn 0.000000 0.000000 1.000000
vn 0.000000 0.000000 1.000000
vn -0.000000 -1.000000 -0.000000
vn 0.000000 -1.000000 0.000000
vn 0.000000 -1.000000 0.000000
vn 0.000000 -1.000000 0.000000
vn 0.000000 -1.000000 0.000000
vn 0.000000 -1.000000 0.000000
vn 1.000000 0.000000 0.000000
vn 1.000000 0.000000 -0.000000
vn 1.000000 0.000000 0.000000
vn 1.000000 0.000000 0.000000
vn 1.000000 -0.000000 0.000000
vn 1.000000 0.000000 0.000000
vn 0.082244 0.880090 0.467629
vn 0.082244 0.880090 0.467629
vn 0.082244 0.880090 0.467629
vn -0.118452 0.714055 0.689996
vn -0.118452 0.714055 0.689996
vn -0.118452 0.714055 0.689996
vn -0.000000 0.476509 0.879169
vn 0.000000 0.476509 0.879169
vn 0.000000 0.476509 0.879169
vn 0.000000 -0.988659 0.150177
vn 0.000000 -0.988659 0.150177
vn 0.000000 -0.988659 0.150177
vn 0.000000 -0.150177 0.988659
vn 0.000000 -0.150177 0.988659
vn 0.000000 -0.150177 0.988659
vn 0.000000 0.150177 0.988659
vn 0.000000 0.150177 0.988659
vn -0.000000 0.150177 0.988659
vn 0.000000 0.988659 0.150177
vn -0.000000 0.988659 0.150177
vn 0.000000 0.988659 0.150177
vn -0.000000 0.879169 0.476509
vn 0.000000 0.879169 0.476509
vn 0.000000 0.879169 0.476509
vn 0.000000 -0.476509 0.879169
vn 0.000000 -0.476509 0.879169
vn 0.000000 -0.476509 0.879169
vn 0.082244 -0.467629 0.880090
vn 0.082244 -0.467629 0.880090
vn 0.082244 -0.467629 0.880090
vn -0.118452 -0.689996 0.714055
vn -0.118452 -0.689996 0.714055
vn -0.118452 -0.689996 0.714055
vn 0.000000 -0.879169 0.476509
vn 0.000000 -0.879169 0.476509
vn 0.000000 -0.879169 0.476509
vn 0.000000 -0.988659 0.150177
vn 0.000000 -0.988659 0.150177
vn 0.000000 -0.988659 0.150177
vn -0.082244 -0.880090 0.467629
vn -0.082244 -0.880090 0.467629
vn -0.082244 -0.880090 0.467629
vn 0.118452 -0.714055 0.689996
vn 0.118452 -0.714055 0.689996
vn 0.118452 -0.714055 0.689996
vn 0.000000 -0.150177 0.988659
vn 0.000000 -0.150177 0.988659
vn 0.000000 -0.150177 0.988659
vn 0.000000 0.150177 0.988659
vn -0.000000 0.150177 0.988659
vn -0.000000 0.150177 0.988659
vn -0.082244 0.467629 0.880090
vn -0.082244 0.467629 0.880090
vn -0.082244 0.467629 0.880090
vn 0.118452 0.689996 0.714055
vn 0.118452 0.689996 0.714055
vn 0.118452 0.689996 0.714055
vn -0.000000 0.988659 0.150177
vn -0.000000 0.988659 0.150177
vn 0.000000 0.988659 0.150177
vn -1.000000 0.000000 -0.000000
vn -1.000000 0.000000 0.000000
vn -1.000000 0.000000 0.000000
vn -1.000000 -0.000000 0.000000
vn -1.000000 0.000000 0.000000
vn -1.000000 0.000000 -0.000000
vn -1.000000 0.000000 0.000000
vn -1.000000 0.000000 0.000000
vn -1.000000 0.000000 0.000000
vn -1.000000 0.000000 0.000000
vn -1.000000 0.000000 -0.000000
vn -1.000000 0.000000 0.000000
vn -1.000000 0.000000 0.000000
vn -1.000000 0.000000 -0.000000
vn -1.000000 -0.000000 0.000000
vn -1.000000 0.000000 0.000000
vn -1.000000 0.000000 0.000000
vn -1.000000 0.000000 -0.000000
vn -1.000000 -0.000000 -0.000000
vn -1.000000 0.000000 0.000000
vn -1.000000 0.000000 0.000000
vn -1.000000 0.000000 0.000000
vn -1.000000 0.000000 -0.000000
vn -1.000000 0.000000 0.000000
vn -1.000000 -0.000000 -0.000000
vn -1.000000 0.000000 0.000000
vn -1.000000 0.000000 0.000000
vn 1.000000 0.000000 0.000000
vn 1.000000 0.000000 -0.000000
vn 1.000000 0.000000 0.000000
vn 1.000000 0.000000 0.000000
vn 1.000000 0.000000 0.000000
vn 1.000000 0.000000 0.000000
vn 1.000000 0.000000 0.000000
vn 1.000000 -0.000000 0.000000
vn 1.000000 0.000000 0.000000
vn 1.000000 0.000000 0.000000
vn 1.000000 0.000000 0.000000
vn 1.000000 0.000000 0.000000
vn 1.000000 -0.000000 0.000000
vn 1.000000 0.000000 0.000000
vn 1.000000 0.000000 0.000000
vn 1.000000 0.000000 0.000000
vn 1.000000 0.000000 0.000000
vn 1.000000 0.000000 0.000000
vn 1.000000 0.000000 0.000000
vn 1.000000 0.000000 0.000000
vn 1.000000 0.000000 0.000000
vn 1.000000 0.000000 0.000000
vn 1.000000 0.000000 0.000000
vn 1.000000 0.000000 0.000000
vn 1.000000 0.000000 0.000000
vn 1.000000 -0.000000 0.000000
vn 1.000000 0.000000 0.000000
vn 1.000000 0.000000 0.000000
vn 1.000000 -0.000000 0.000000
vn 1.000000 0.000000 -0.000000
vn 1.000000 0.000000 0.000000
vn 1.000000 -0.000000 0.000000
vn 1.000000 0.000000 0.000000
vn -1.000000 0.000000 0.000000
vn -1.000000 0.000000 -0.000000
vn -1.000000 -0.000000 0.000000
vn -1.000000 0.000000 0.000000
vn -1.000000 0.000000 0.000000
vn -1.000000 0.000000 0.000000
vn -1.000000 0.000000 0.000000
vn -1.000000 0.000000 0.000000
vn -1.000000 0.000000 0.000000
vn -1.000000 -0.000000 0.000000
vn -1.000000 0.000000 0.000000
vn -1.000000 0.000000 0.000000
vn -1.000000 0.000000 0.000000
vn -1.000000 0.000000 0.000000
vn -1.000000 -0.000000 0.000000
vn -1.000000 0.000000 0.000000
vn -1.000000 0.000000 0.000000
vn -1.000000 0.000000 0.000000
vn -1.000000 0.000000 0.000000
vn -1.000000 0.000000 0.000000
vn -1.000000 -0.000000 0.000000
vn -1.000000 0.000000 0.000000
vn -1.000000 -0.000000 0.000000
vn -1.000000 0.000000 0.000000
vn -1.000000 0.000000 0.000000
vn -1.000000 0.000000 0.000000
vn -1.000000 0.000000 0.000000
vn 0.076348 -0.876603 -0.475119
vn 0.076348 -0.876603 -0.475119
vn 0.076348 -0.876603 -0.475119
vn 0.118452 -0.689996 -0.714055
vn 0.118452 -0.689996 -0.714055
vn 0.118452 -0.689996 -0.714055
vn -0.082244 -0.467629 -0.880090
vn -0.082244 -0.467629 -0.880090
vn -0.082244 -0.467629 -0.880090
vn 0.000000 0.469219 -0.883082
vn 0.000000 0.469219 -0.883082
vn 0.000000 0.469219 -0.883082
vn 0.000000 0.988659 -0.150177
vn 0.000000 0.988659 -0.150177
vn 0.000000 0.988659 -0.150177
vn 0.000000 0.879169 -0.476509
vn 0.000000 0.879169 -0.476509
vn 0.000000 0.879169 -0.476509
vn 0.000000 0.694888 -0.719118
vn 0.000000 0.694888 -0.719118
vn 0.000000 0.694888 -0.719118
vn -0.000000 0.150177 -0.988659
vn 0.000000 0.150177 -0.988659
vn -0.000000 0.150177 -0.988659
vn 0.000000 -0.150177 -0.988659
vn 0.000000 -0.150177 -0.988659
vn -0.000000 -0.150177 -0.988659
vn 0.000000 -0.476509 -0.879169
vn 0.000000 -0.476509 -0.879169
vn -0.000000 -0.476509 -0.879169
vn -0.118452 -0.714055 -0.689996
vn -0.118452 -0.714055 -0.689996
vn -0.118452 -0.714055 -0.689996
vn 0.000000 -0.883082 -0.469219
vn 0.000000 -0.883082 -0.469219
vn -0.000000 -0.883082 -0.469219
vn -0.000000 -0.988659 -0.150177
vn -0.000000 -0.988659 -0.150177
vn 0.000000 -0.988659 -0.150177
vn 0.000000 -0.988659 -0.150177
vn 0.000000 -0.988659 -0.150177
vn -0.000000 -0.988659 -0.150177
vn 0.000000 -0.150177 -0.988659
vn 0.000000 -0.150177 -0.988659
vn 0.000000 -0.150177 -0.988659
vn 0.000000 0.150177 -0.988659
vn 0.000000 0.150177 -0.988659
vn 0.000000 0.150177 -0.988659
vn 0.000000 0.469219 -0.883082
vn 0.000000 0.469219 -0.883082
vn 0.000000 0.469219 -0.883082
vn 0.000000 0.694888 -0.719118
vn 0.000000 0.694888 -0.719118
vn 0.000000 0.694888 -0.719118
vn 0.000000 0.879169 -0.476509
vn 0.000000 0.879169 -0.476509
vn 0.000000 0.879169 -0.476509
vn 0.000000 0.988659 -0.150177
vn 0.000000 0.988659 -0.150177
vn 0.000000 0.988659 -0.150177
vn 1.000000 -0.000000 -0.000000
vn 1.000000 0.000000 0.000000
vn 1.000000 0.000000 0.000000
vn 1.000000 0.000000 0.000000
vn 1.000000 -0.000000 -0.000000
vn 1.000000 0.000000 0.000000
vn 1.000000 -0.000000 0.000000
vn 1.000000 0.000000 -0.000000
vn 1.000000 0.000000 0.000000
vn 1.000000 0.000000 0.000000
vn 1.000000 0.000000 -0.000000
vn 1.000000 0.000000 0.000000
vn 1.000000 0.000000 0.000000
vn 1.000000 0.000000 -0.000000
vn 1.000000 0.000000 0.000000
vn 1.000000 -0.000000 -0.000000
vn 1.000000 0.000000 0.000000
vn 1.000000 0.000000 0.000000
vn 1.000000 0.000000 -0.000000
vn 1.000000 0.000000 0.000000
vn 1.000000 0.000000 0.000000

f 1//1 2//2 3//3
f 3//4 4//5 1//6
f 1//7 4//8 5//9
f 1//10 5//11 6//12
f 7//13 3//14 2//15
f 7//16 2//17 8//18
f 8//19 1//20 6//21
f 1//22 8//23 2//24
f 4//25 3//26 7//27
f 5//28 4//29 7//30
f 5//31 7//32 6//33
f 8//34 6//35 7//36
f 9//37 10//38 11//39
f 9//40 11//41 12//42
f 12//43 13//44 14//45
f 12//46 11//47 13//48
f 14//49 9//50 12//51
f 15//52 9//53 14//54
f 13//55 10//56 16//57
f 11//58 10//59 13//60
f 16//61 10//62 15//63
f 15//64 10//65 9//66
f 15//67 14//68 13//69
f 13//70 16//71 15//72
f 17//73 18//74 19//75
f 17//76 19//77 20//78
f 21//79 22//80 20//81
f 23//82 24//83 25//84
f 26//85 27//86 28//87
f 28//88 22//89 21//90
f 29//91 18//92 30//93
f 18//94 17//95 30//96
f 31//97 26//98 32//99
f 32//100 26//101 33//102
f 33//103 34//104 32//105
f 25//106 35//107 34//108
f 25//109 24//110 35//111
f 35//112 36//113 34//114
f 34//115 36//116 32//117
f 27//118 26//119 31//120
f 22//121 28//122 27//123
f 20//124 22//125 37//126
f 17//127 20//128 37//129
f 38//130 29//131 30//132
f 25//133 39//134 23//135
f 20//136 39//137 21//138
f 39//139 34//140 21//141
f 34//142 33//143 21//144
f 33//145 26//146 21//147
f 21//148 26//149 28//150
f 19//151 18//152 20//153
f 25//154 34//155 39//156
f 18//157 29//158 20//159
f 40//160 41//161 17//162
f 40//163 17//164 31//165
f 35//166 24//167 40//168
f 31//169 22//170 27//171
f 31//172 17//173 22//174
f 37//175 22//176 17//177
f 41//178 30//179 17//180
f 38//181 30//182 41//183
f 31//184 32//185 40//186
f 32//187 36//188 40//189
f 36//190 35//191 40//192
f 39//193 20//194 42//195
f 39//196 43//197 23//198
f 39//199 44//200 45//201
f 46//202 47//203 42//204
f 44//205 39//206 47//207
f 42//208 47//209 39//210
f 48//211 20//212 29//213
f 20//214 48//215 42//216
f 43//217 39//218 49//219
f 50//220 49//221 40//222
f 40//223 39//224 51//225
f 51//226 39//227 52//228
f 53//229 47//230 54//231
f 55//232 48//233 38//234
f 48//235 55//236 41//237
f 46//238 42//239 54//240
f 44//241 53//242 56//243
f 45//244 56//245 52//246
f 39//247 45//248 52//249
f 49//250 39//251 40//252
f 43//253 49//254 50//255
f 24//256 23//257 50//258
f 23//259 43//260 50//261
f 45//262 44//263 56//264
f 44//265 47//266 53//267
f 47//268 46//269 54//270
f 54//271 42//272 41//273
f 42//274 48//275 41//276
f 48//277 29//278 38//279
f 51//280 52//281 40//282
f 40//283 52//284 56//285
f 40//286 53//287 41//288
f 40//289 56//290 53//291
f 53//292 54//293 41//294
f 50//295 40//296 24//297
f 55//298 38//299 41//300

