# /tmp/binarydeb/ros-indigo-pr2-description-1.11.14/meshes/gripper_v0/convex/gripper_palm.obj created by IVCON.
# Original data in /tmp/binarydeb/ros-indigo-pr2-description-1.11.14/meshes/gripper_v0//gripper_palm.stl.

g IVCON

v 0.073037 0.050643 -0.017542
v 0.061082 0.045697 -0.018993
v 0.061461 0.046002 0.018922
v 0.118404 -0.032982 -0.019729
v 0.115318 -0.032521 -0.019965
v 0.120746 -0.019974 -0.019915
v 0.041777 0.004068 -0.021300
v 0.041873 0.025045 -0.020575
v 0.043649 0.023904 -0.023588
v 0.075047 0.049525 -0.020108
v 0.050909 0.032211 -0.023703
v 0.121073 -0.018828 0.019896
v 0.119449 -0.017167 0.023610
v 0.115426 -0.032226 0.020458
v 0.079855 0.039441 -0.024226
v 0.078599 -0.039413 -0.024235
v 0.045635 0.026375 0.024192
v 0.044059 0.027303 0.022068
v 0.111046 -0.034771 -0.023509
v 0.101473 -0.045205 -0.019039
v 0.086594 -0.050160 -0.019443
v 0.125009 0.005578 -0.019005
v 0.121677 0.006749 -0.019408
v 0.121618 0.006226 0.019734
v 0.120779 0.020384 0.019911
v 0.113824 0.031756 0.023376
v 0.119286 0.015676 0.023690
v 0.078458 -0.039371 0.024245
v 0.041315 0.010539 0.019058
v 0.041934 -0.003626 0.021733
v 0.041572 0.022926 0.020511
v 0.045490 -0.026587 0.024151
v 0.119012 -0.019753 -0.023557
v 0.029453 0.004801 0.021251
v 0.106688 0.041597 0.019379
v 0.098014 0.046563 0.019851
v 0.079141 0.039462 0.024231
v 0.086516 0.050253 0.019099
v 0.073744 0.050080 0.019426
v 0.111019 0.034650 -0.023601
v 0.108562 0.040423 -0.019640
v 0.115441 0.032218 -0.019804
v 0.123357 -0.023072 0.019708
v 0.041466 0.021665 -0.001758
v 0.029451 0.018761 0.011913
v 0.041446 0.018977 0.010524
v 0.121637 -0.006430 0.019482
v 0.117105 0.023617 -0.023821
v 0.086725 0.050208 -0.019653
v 0.125054 0.009997 0.019712
v 0.029449 -0.010592 0.019318
v 0.118168 -0.033096 0.019778
v 0.041350 -0.009466 -0.019955
v 0.041995 -0.024276 0.021765
v 0.042045 -0.025129 -0.021234
v 0.050491 -0.034228 0.021596
v 0.075494 -0.050204 0.019570
v 0.073911 -0.050060 -0.019538
v 0.029450 0.003677 -0.021550
v 0.041429 0.016187 -0.014948
v 0.029449 -0.020625 -0.006675
v 0.029450 -0.012125 -0.018383
v 0.041466 -0.021831 -0.004655
v 0.063815 -0.047522 0.018947
v 0.115414 0.032282 0.019941
v 0.118225 0.033060 0.019801
v 0.125400 0.010664 -0.019764
v 0.118643 0.033075 -0.019732
v 0.123944 0.021379 0.019601
v 0.045179 -0.025942 -0.024059
v 0.125101 -0.005131 0.019244
v 0.125113 -0.010058 0.019711
v 0.121726 -0.006679 -0.019524
v 0.125165 -0.010149 -0.019670
v 0.123117 -0.023705 -0.019640
v 0.125179 0.005341 0.019053
v 0.061838 -0.046235 -0.019210
v 0.029450 -0.020823 0.006662
v 0.041451 -0.017862 0.012649
v 0.029447 0.021032 -0.006025
v 0.029449 0.014263 -0.016224
v 0.121467 0.016207 -0.020483
v 0.108687 -0.036988 0.023394
v 0.094505 -0.048234 0.018991
v 0.086544 -0.050265 0.019156
v 0.124993 -0.005581 -0.019020
v 0.105388 -0.042711 0.019135

vn -0.381913 0.924191 -0.003608
vn -0.381913 0.924191 -0.003608
vn -0.381913 0.924191 -0.003608
vn 0.072291 -0.027319 -0.997009
vn 0.072291 -0.027319 -0.997009
vn 0.072291 -0.027319 -0.997009
vn -0.857725 0.021657 -0.513652
vn -0.857725 0.021657 -0.513652
vn -0.857725 0.021657 -0.513652
vn -0.192930 0.450046 -0.871916
vn -0.192930 0.450046 -0.871916
vn -0.192930 0.450046 -0.871916
vn 0.807344 -0.319530 0.496080
vn 0.807344 -0.319530 0.496080
vn 0.807344 -0.319530 0.496080
vn -0.018151 0.000401 -0.999835
vn -0.018151 0.000401 -0.999835
vn -0.018151 0.000401 -0.999835
vn -0.510790 0.581842 0.632893
vn -0.510790 0.581842 0.632893
vn -0.510790 0.581842 0.632893
vn 0.200596 -0.535503 -0.820365
vn 0.200596 -0.535503 -0.820365
vn 0.200596 -0.535503 -0.820365
vn 0.330243 0.943805 0.013125
vn 0.330243 0.943805 0.013125
vn 0.330243 0.943805 0.013125
vn 0.739181 0.263171 0.619962
vn 0.739181 0.263171 0.619962
vn 0.739180 0.263171 0.619962
vn 0.016756 -0.002352 0.999857
vn 0.016756 -0.002352 0.999857
vn 0.016756 -0.002352 0.999857
vn -0.978528 -0.003870 0.206079
vn -0.978528 -0.003870 0.206079
vn -0.978528 -0.003870 0.206079
vn -0.558345 0.000872 0.829608
vn -0.558345 0.000872 0.829608
vn -0.558345 0.000872 0.829608
vn 0.024672 -0.016248 -0.999564
vn 0.024672 -0.016248 -0.999564
vn 0.024672 -0.016248 -0.999564
vn 0.089560 0.188637 0.977955
vn 0.089560 0.188637 0.977955
vn 0.089560 0.188637 0.977955
vn 0.363661 0.564669 0.740877
vn 0.363661 0.564669 0.740877
vn 0.363661 0.564669 0.740877
vn 0.095606 0.326015 0.940518
vn 0.095606 0.326015 0.940518
vn 0.095606 0.326015 0.940518
vn 0.833970 -0.359158 -0.418927
vn 0.833970 -0.359158 -0.418927
vn 0.833970 -0.359158 -0.418927
vn 0.017549 0.419602 0.907539
vn 0.017549 0.419602 0.907539
vn 0.017549 0.419602 0.907539
vn 0.688742 0.586022 -0.426865
vn 0.688742 0.586022 -0.426865
vn 0.688742 0.586022 -0.426865
vn 0.089521 0.003994 0.995977
vn 0.089521 0.003994 0.995977
vn 0.089521 0.003994 0.995977
vn 0.007215 0.976838 0.213857
vn 0.007215 0.976838 0.213857
vn 0.007215 0.976838 0.213857
vn 0.864640 0.003070 0.502382
vn 0.864640 0.003070 0.502382
vn 0.864640 0.003070 0.502382
vn 0.891602 -0.007653 0.452756
vn 0.891602 -0.007653 0.452756
vn 0.891602 -0.007653 0.452756
vn 0.025252 0.033876 -0.999107
vn 0.025252 0.033876 -0.999107
vn 0.025252 0.033876 -0.999107
vn -0.036488 0.905297 -0.423208
vn -0.036488 0.905297 -0.423208
vn -0.036488 0.905297 -0.423208
vn 0.739121 -0.673527 -0.007887
vn 0.739121 -0.673527 -0.007887
vn 0.739121 -0.673527 -0.007887
vn 0.018830 -0.011396 0.999758
vn 0.018830 -0.011396 0.999758
vn 0.018830 -0.011396 0.999758
vn -0.993801 0.111162 -0.001553
vn -0.993801 0.111162 -0.001553
vn -0.993801 0.111163 -0.001553
vn -0.315797 0.948605 0.020489
vn -0.315797 0.948605 0.020489
vn -0.315797 0.948605 0.020489
vn 0.072396 -0.360736 -0.929854
vn 0.072396 -0.360736 -0.929854
vn 0.072396 -0.360736 -0.929854
vn -0.121536 -0.123635 0.984857
vn -0.121536 -0.123635 0.984857
vn -0.121536 -0.123635 0.984857
vn 0.208773 -0.101237 0.972710
vn 0.208773 -0.101237 0.972710
vn 0.208773 -0.101237 0.972710
vn -0.246564 -0.088075 -0.965116
vn -0.246564 -0.088075 -0.965116
vn -0.246564 -0.088075 -0.965116
vn -0.760405 -0.649338 0.012008
vn -0.760405 -0.649338 0.012008
vn -0.760405 -0.649338 0.012008
vn -0.007876 -0.999963 -0.003372
vn -0.007876 -0.999963 -0.003372
vn -0.007876 -0.999963 -0.003372
vn 0.003276 0.464307 -0.885668
vn 0.003276 0.464307 -0.885668
vn 0.003276 0.464307 -0.885668
vn 0.017528 -0.809113 -0.587392
vn 0.017528 -0.809113 -0.587392
vn 0.017528 -0.809113 -0.587392
vn -0.139061 -0.351811 0.925684
vn -0.139061 -0.351811 0.925684
vn -0.139061 -0.351811 0.925684
vn 0.044681 0.017657 0.998845
vn 0.044681 0.017657 0.998845
vn 0.044681 0.017657 0.998845
vn 0.019322 -0.005240 -0.999800
vn 0.019322 -0.005240 -0.999800
vn 0.019322 -0.005240 -0.999800
vn 0.020644 0.007660 -0.999758
vn 0.020644 0.007660 -0.999758
vn 0.020644 0.007660 -0.999758
vn 0.091734 0.018693 0.995608
vn 0.091734 0.018693 0.995608
vn 0.091734 0.018693 0.995608
vn -0.001470 0.009405 -0.999955
vn -0.001470 0.009405 -0.999955
vn -0.001470 0.009405 -0.999955
vn 0.076092 -0.019672 0.996907
vn 0.076092 -0.019672 0.996907
vn 0.076092 -0.019672 0.996907
vn -0.258456 0.966020 -0.002372
vn -0.258456 0.966020 -0.002372
vn -0.258456 0.966020 -0.002372
vn 0.722203 0.691676 -0.002749
vn 0.722203 0.691676 -0.002749
vn 0.722203 0.691676 -0.002749
vn -0.038803 0.003602 -0.999240
vn -0.038803 0.003602 -0.999240
vn -0.038803 0.003602 -0.999240
vn 0.242084 0.970243 0.004965
vn 0.242084 0.970243 0.004965
vn 0.242084 0.970243 0.004965
vn -0.729348 -0.684142 -0.001511
vn -0.729348 -0.684142 -0.001511
vn -0.729348 -0.684142 -0.001511
vn -0.097382 -0.995138 -0.014763
vn -0.097382 -0.995138 -0.014763
vn -0.097382 -0.995138 -0.014763
vn -0.120927 -0.771977 0.624041
vn -0.120927 -0.771977 0.624042
vn -0.120927 -0.771977 0.624041
vn 0.003682 -0.404935 -0.914338
vn 0.003682 -0.404935 -0.914338
vn 0.003682 -0.404935 -0.914338
vn -0.664700 0.031419 -0.746449
vn -0.664700 0.031419 -0.746449
vn -0.664700 0.031419 -0.746449
vn -0.013116 0.999794 0.015477
vn -0.013116 0.999794 0.015477
vn -0.013116 0.999794 0.015477
vn -0.148147 -0.988936 0.007634
vn -0.148147 -0.988936 0.007634
vn -0.148147 -0.988936 0.007634
vn -0.162238 0.375847 0.912369
vn -0.162238 0.375847 0.912369
vn -0.162238 0.375847 0.912369
vn -0.648867 0.635561 -0.418370
vn -0.648867 0.635561 -0.418370
vn -0.648867 0.635561 -0.418370
vn -1.000000 -0.000002 -0.000159
vn -1.000000 -0.000002 -0.000159
vn -1.000000 -0.000002 -0.000159
vn -0.001212 0.000186 0.999999
vn -0.001212 0.000186 0.999999
vn -0.001212 0.000186 0.999999
vn 0.991020 -0.133702 0.001627
vn 0.991020 -0.133702 0.001627
vn 0.991020 -0.133702 0.001627
vn 0.144142 0.018484 -0.989384
vn 0.144142 0.018484 -0.989384
vn 0.144142 0.018484 -0.989384
vn 0.898153 0.439576 0.009678
vn 0.898153 0.439576 0.009678
vn 0.898153 0.439576 0.009678
vn 0.632059 0.023073 -0.774577
vn 0.632059 0.023073 -0.774577
vn 0.632059 0.023073 -0.774577
vn 0.065435 -0.009049 0.997816
vn 0.065435 -0.009049 0.997816
vn 0.065435 -0.009049 0.997816
vn -0.731883 0.681427 0.001836
vn -0.731883 0.681427 0.001836
vn -0.731883 0.681427 0.001836
vn -0.003152 -0.000782 0.999995
vn -0.003152 -0.000782 0.999995
vn -0.003152 -0.000782 0.999995
vn 0.656196 0.638913 0.401493
vn 0.656196 0.638913 0.401493
vn 0.656196 0.638913 0.401493
vn 0.090242 -0.774263 -0.626397
vn 0.090242 -0.774263 -0.626397
vn 0.090242 -0.774263 -0.626397
vn 0.911218 -0.027705 0.410991
vn 0.911218 -0.027705 0.410991
vn 0.911218 -0.027705 0.410991
vn 0.030271 -0.027322 0.999168
vn 0.030271 -0.027322 0.999168
vn 0.030271 -0.027322 0.999168
vn -0.085318 -0.195788 -0.976928
vn -0.085318 -0.195788 -0.976928
vn -0.085318 -0.195788 -0.976928
vn -0.016910 0.000881 -0.999857
vn -0.016910 0.000881 -0.999857
vn -0.016910 0.000881 -0.999857
vn 0.031297 0.030104 0.999057
vn 0.031297 0.030104 0.999057
vn 0.031297 0.030104 0.999057
vn 0.010845 -0.000061 -0.999941
vn 0.010845 -0.000061 -0.999941
vn 0.010845 -0.000061 -0.999941
vn -0.982670 -0.185344 0.002546
vn -0.982670 -0.185344 0.002546
vn -0.982670 -0.185344 0.002546
vn -0.997672 0.006894 -0.067842
vn -0.997672 0.006894 -0.067842
vn -0.997672 0.006894 -0.067842
vn -0.261255 0.792974 -0.550398
vn -0.261255 0.792974 -0.550398
vn -0.261255 0.792974 -0.550398
vn 0.149683 -0.518375 0.841952
vn 0.149683 -0.518375 0.841952
vn 0.149683 -0.518375 0.841952
vn 0.317667 -0.948178 0.006769
vn 0.317667 -0.948178 0.006769
vn 0.317667 -0.948178 0.006769
vn 0.068555 0.708903 0.701966
vn 0.068555 0.708903 0.701966
vn 0.068555 0.708903 0.701966
vn 0.065656 0.391596 0.917792
vn 0.065656 0.391596 0.917792
vn 0.065656 0.391596 0.917792
vn -0.135857 -0.349155 -0.927164
vn -0.135857 -0.349155 -0.927164
vn -0.135857 -0.349155 -0.927164
vn 0.316341 -0.948483 -0.017588
vn 0.316341 -0.948483 -0.017588
vn 0.316341 -0.948483 -0.017588
vn 0.906811 0.048491 0.418739
vn 0.906811 0.048491 0.418739
vn 0.906811 0.048491 0.418739
vn 0.722172 -0.691707 0.003138
vn 0.722172 -0.691707 0.003138
vn 0.722172 -0.691707 0.003138
vn -1.000000 0.000201 0.000077
vn -1.000000 0.000201 0.000077
vn -1.000000 0.000201 0.000077
vn -0.074715 0.830854 -0.551451
vn -0.074715 0.830854 -0.551451
vn -0.074715 0.830854 -0.551451
vn -0.132372 -0.361927 0.922760
vn -0.132372 -0.361927 0.922760
vn -0.132372 -0.361927 0.922760
vn 0.999968 -0.007492 -0.002739
vn 0.999968 -0.007492 -0.002739
vn 0.999968 -0.007492 -0.002739
vn 0.013507 0.383558 -0.923418
vn 0.013507 0.383558 -0.923418
vn 0.013507 0.383558 -0.923418
vn 0.056458 -0.387814 0.920007
vn 0.056458 -0.387814 0.920007
vn 0.056458 -0.387814 0.920007
vn -0.096423 0.987456 0.125034
vn -0.096423 0.987456 0.125034
vn -0.096423 0.987456 0.125034
vn -1.000000 -0.000285 0.000157
vn -1.000000 -0.000285 0.000157
vn -1.000000 -0.000285 0.000157
vn -0.137555 0.349478 0.926792
vn -0.137555 0.349478 0.926792
vn -0.137555 0.349478 0.926792
vn 0.891543 -0.452932 0.001856
vn 0.891543 -0.452932 0.001856
vn 0.891543 -0.452932 0.001856
vn 0.988776 -0.149365 -0.003616
vn 0.988776 -0.149365 -0.003616
vn 0.988776 -0.149365 -0.003616
vn 0.336038 -0.679213 0.652494
vn 0.336038 -0.679213 0.652494
vn 0.336038 -0.679213 0.652494
vn 0.031626 0.999499 -0.000987
vn 0.031626 0.999499 -0.000987
vn 0.031626 0.999499 -0.000987
vn -0.224102 -0.974550 0.005472
vn -0.224102 -0.974550 0.005472
vn -0.224102 -0.974550 0.005472
vn -0.266955 0.963708 -0.001725
vn -0.266955 0.963708 -0.001725
vn -0.266955 0.963708 -0.001725
vn 0.638749 -0.661096 0.393639
vn 0.638749 -0.661096 0.393639
vn 0.638749 -0.661096 0.393639
vn 0.555294 -0.309899 0.771759
vn 0.555293 -0.309899 0.771759
vn 0.555293 -0.309899 0.771759
vn -0.563953 -0.000397 0.825806
vn -0.563953 -0.000397 0.825806
vn -0.563953 -0.000397 0.825806
vn -0.764892 -0.017405 -0.643923
vn -0.764892 -0.017405 -0.643923
vn -0.764892 -0.017405 -0.643923
vn -0.682472 0.024307 0.730508
vn -0.682472 0.024307 0.730508
vn -0.682472 0.024307 0.730508
vn -0.622588 0.536261 -0.569920
vn -0.622588 0.536261 -0.569920
vn -0.622588 0.536261 -0.569920
vn 0.820665 0.368978 0.436307
vn 0.820665 0.368978 0.436307
vn 0.820665 0.368978 0.436307
vn -0.997797 -0.064838 0.014003
vn -0.997797 -0.064838 0.014003
vn -0.997797 -0.064838 0.014003
vn -0.999726 0.023137 0.003459
vn -0.999726 0.023137 0.003459
vn -0.999726 0.023137 0.003459
vn 0.766288 0.642497 -0.000502
vn 0.766288 0.642497 -0.000502
vn 0.766288 0.642497 -0.000502
vn 0.032066 -0.403341 0.914488
vn 0.032066 -0.403341 0.914488
vn 0.032066 -0.403341 0.914488
vn -0.998759 -0.042162 -0.026506
vn -0.998759 -0.042162 -0.026506
vn -0.998759 -0.042162 -0.026506
vn 0.700825 -0.373707 -0.607608
vn 0.700825 -0.373707 -0.607608
vn 0.700825 -0.373707 -0.607608
vn -0.005634 -0.999980 -0.002735
vn -0.005634 -0.999980 -0.002735
vn -0.005634 -0.999980 -0.002735
vn 0.023370 -0.099547 -0.994758
vn 0.023370 -0.099547 -0.994758
vn 0.023370 -0.099547 -0.994758
vn 0.013506 0.000059 0.999909
vn 0.013506 0.000059 0.999909
vn 0.013506 0.000059 0.999909
vn -0.872139 0.488896 0.018817
vn -0.872139 0.488896 0.018817
vn -0.872139 0.488897 0.018817
vn 0.089250 0.026611 0.995654
vn 0.089250 0.026611 0.995654
vn 0.089250 0.026611 0.995654
vn 0.408718 0.912076 -0.032659
vn 0.408718 0.912076 -0.032659
vn 0.408718 0.912076 -0.032659
vn -0.029459 0.034686 0.998964
vn -0.029459 0.034686 0.998964
vn -0.029459 0.034686 0.998964
vn 0.120594 0.001185 -0.992701
vn 0.120594 0.001185 -0.992701
vn 0.120594 0.001185 -0.992701
vn -0.141250 -0.338277 -0.930385
vn -0.141250 -0.338277 -0.930385
vn -0.141250 -0.338277 -0.930385
vn 0.988605 0.004906 -0.150450
vn 0.988605 0.004906 -0.150450
vn 0.988605 0.004906 -0.150450
vn 0.448924 0.205797 -0.869548
vn 0.448924 0.205797 -0.869548
vn 0.448924 0.205797 -0.869548
vn 0.191708 0.016463 0.981314
vn 0.191708 0.016463 0.981314
vn 0.191708 0.016463 0.981314
vn -0.999057 0.040999 -0.014269
vn -0.999057 0.040999 -0.014269
vn -0.999057 0.040999 -0.014269
vn -0.998334 -0.002871 0.057633
vn -0.998334 -0.002871 0.057633
vn -0.998334 -0.002871 0.057633
vn 0.863508 0.340728 -0.371831
vn 0.863508 0.340728 -0.371831
vn 0.863508 0.340728 -0.371831
vn 0.999989 -0.001466 -0.004468
vn 0.999989 -0.001466 -0.004468
vn 0.999989 -0.001466 -0.004468
vn 0.023308 -0.112339 -0.993397
vn 0.023308 -0.112339 -0.993397
vn 0.023308 -0.112339 -0.993397
vn -0.100523 0.334721 -0.936940
vn -0.100523 0.334721 -0.936940
vn -0.100523 0.334721 -0.936940
vn 0.631086 -0.711447 -0.309149
vn 0.631086 -0.711447 -0.309150
vn 0.631086 -0.711447 -0.309150
vn 0.072584 0.350283 -0.933827
vn 0.072584 0.350283 -0.933827
vn 0.072584 0.350283 -0.933827
vn 0.900288 -0.053635 -0.431977
vn 0.900288 -0.053635 -0.431977
vn 0.900288 -0.053635 -0.431977
vn 0.022952 0.449364 -0.893054
vn 0.022952 0.449364 -0.893054
vn 0.022952 0.449364 -0.893054
vn 0.713535 0.405035 -0.571677
vn 0.713535 0.405035 -0.571677
vn 0.713535 0.405035 -0.571677
vn 0.278786 0.621167 -0.732414
vn 0.278786 0.621167 -0.732414
vn 0.278786 0.621167 -0.732414
vn 0.137994 -0.536084 0.832809
vn 0.137994 -0.536084 0.832809
vn 0.137994 -0.536084 0.832809
vn 0.072816 -0.027413 -0.996969
vn 0.072816 -0.027413 -0.996969
vn 0.072816 -0.027413 -0.996969
vn 0.710363 0.703835 -0.000679
vn 0.710363 0.703835 -0.000679
vn 0.710363 0.703835 -0.000679
vn 0.724418 -0.689341 -0.005305
vn 0.724418 -0.689341 -0.005305
vn 0.724418 -0.689341 -0.005305
vn -0.608545 -0.618387 -0.497263
vn -0.608545 -0.618387 -0.497263
vn -0.608545 -0.618387 -0.497263
vn -1.000000 0.000276 -0.000313
vn -1.000000 0.000276 -0.000313
vn -1.000000 0.000276 -0.000313
vn -0.317291 -0.480890 0.817357
vn -0.317291 -0.480890 0.817357
vn -0.317291 -0.480890 0.817357
vn -0.999785 0.020212 0.004617
vn -0.999785 0.020212 0.004617
vn -0.999785 0.020212 0.004617
vn 0.351744 -0.936043 0.010007
vn 0.351744 -0.936043 0.010007
vn 0.351744 -0.936043 0.010007
vn -0.302396 -0.953040 -0.016486
vn -0.302396 -0.953040 -0.016486
vn -0.302396 -0.953040 -0.016486
vn 0.149482 0.009078 -0.988723
vn 0.149482 0.009078 -0.988723
vn 0.149482 0.009078 -0.988723
vn 0.496819 0.867851 -0.002250
vn 0.496819 0.867851 -0.002250
vn 0.496819 0.867851 -0.002250
vn 0.247171 -0.968969 -0.002324
vn 0.247171 -0.968969 -0.002324
vn 0.247171 -0.968969 -0.002324
vn 0.674589 -0.737895 -0.020983
vn 0.674589 -0.737895 -0.020983
vn 0.674589 -0.737895 -0.020983
vn 0.452383 -0.891745 0.011857
vn 0.452383 -0.891745 0.011857
vn 0.452383 -0.891745 0.011857
vn 0.729300 0.684041 0.014446
vn 0.729300 0.684041 0.014446
vn 0.729300 0.684041 0.014446
vn 0.888079 -0.459673 0.003985
vn 0.888079 -0.459673 0.003985
vn 0.888079 -0.459673 0.003985
vn 0.956518 0.288467 -0.043122
vn 0.956518 0.288467 -0.043122
vn 0.956518 0.288467 -0.043122
vn 0.995209 0.097225 0.010363
vn 0.995209 0.097225 0.010363
vn 0.995209 0.097225 0.010363
vn -1.000000 0.000010 0.000024
vn -1.000000 0.000010 0.000024
vn -1.000000 0.000010 0.000024
vn -1.000000 -0.000012 0.000192
vn -1.000000 -0.000012 0.000192
vn -1.000000 -0.000012 0.000192
vn 0.127804 -0.966684 0.221784
vn 0.127804 -0.966684 0.221784
vn 0.127804 -0.966684 0.221784
vn -0.744623 0.196283 0.637973
vn -0.744623 0.196283 0.637973
vn -0.744623 0.196283 0.637973
vn 0.847977 -0.012581 -0.529884
vn 0.847977 -0.012581 -0.529884
vn 0.847977 -0.012581 -0.529884
vn -0.732288 0.680993 0.001473
vn -0.732288 0.680993 0.001473
vn -0.732288 0.680993 0.001473
vn -0.683392 -0.590673 0.429046
vn -0.683392 -0.590673 0.429046
vn -0.683392 -0.590673 0.429046
vn -0.303591 -0.952791 -0.004568
vn -0.303591 -0.952791 -0.004568
vn -0.303591 -0.952791 -0.004568
vn -1.000000 -0.000016 0.000001
vn -1.000000 -0.000016 0.000001
vn -1.000000 -0.000016 0.000001
vn -0.704999 -0.709096 0.012603
vn -0.704999 -0.709096 0.012603
vn -0.704999 -0.709096 0.012603
vn 0.305501 0.952192 0.000540
vn 0.305501 0.952192 0.000540
vn 0.305501 0.952192 0.000540
vn -0.114511 0.552298 0.825744
vn -0.114511 0.552298 0.825744
vn -0.114511 0.552298 0.825744
vn 0.087255 0.919906 -0.382308
vn 0.087255 0.919906 -0.382308
vn 0.087255 0.919906 -0.382308

f 1//1 2//2 3//3
f 4//4 5//5 6//6
f 7//7 8//8 9//9
f 2//10 10//11 11//12
f 12//13 13//14 14//15
f 15//16 16//17 11//18
f 17//19 3//20 18//21
f 19//22 20//23 21//24
f 22//25 23//26 24//27
f 25//28 26//29 27//30
f 13//31 27//32 28//33
f 29//34 30//35 31//36
f 32//37 17//38 30//39
f 19//40 16//41 33//42
f 29//43 34//44 30//45
f 26//46 35//47 36//48
f 36//49 37//50 26//51
f 6//52 5//53 33//54
f 38//55 39//56 37//57
f 40//58 41//59 42//60
f 12//61 14//62 43//63
f 44//64 45//65 46//66
f 13//67 24//68 27//69
f 13//70 47//71 24//72
f 40//73 48//74 15//75
f 10//76 1//77 49//78
f 50//79 24//80 23//81
f 25//82 24//83 50//84
f 31//85 8//86 44//87
f 39//88 1//89 3//90
f 21//91 16//92 19//93
f 34//94 51//95 30//96
f 14//97 52//98 43//99
f 53//100 7//101 9//102
f 54//103 55//104 56//105
f 21//106 57//107 58//108
f 59//109 60//110 7//111
f 61//112 62//113 63//114
f 32//115 64//116 28//117
f 65//118 25//119 66//120
f 16//121 48//122 33//123
f 67//124 42//125 68//126
f 25//127 50//128 69//129
f 70//130 9//131 16//132
f 47//133 71//134 24//135
f 66//136 68//137 42//138
f 47//139 72//140 73//141
f 74//142 75//143 73//144
f 22//145 24//146 76//147
f 77//148 56//149 55//150
f 61//151 63//152 78//153
f 79//154 51//155 78//156
f 21//157 58//158 16//159
f 70//160 55//161 53//162
f 39//163 38//164 1//165
f 14//166 5//167 4//168
f 3//169 17//170 39//171
f 2//172 11//173 8//174
f 59//175 80//176 81//177
f 17//178 28//179 37//180
f 72//181 43//182 74//183
f 73//184 75//185 6//186
f 66//187 69//188 68//189
f 48//190 82//191 33//192
f 12//193 43//194 72//195
f 2//196 18//197 3//198
f 17//199 32//200 28//201
f 65//202 35//203 26//204
f 62//205 53//206 63//207
f 47//208 13//209 12//210
f 13//211 28//212 83//213
f 62//214 59//215 53//216
f 9//217 11//218 16//219
f 37//220 27//221 26//222
f 16//223 15//224 48//225
f 54//226 63//227 55//228
f 7//229 60//230 8//231
f 1//232 10//233 2//234
f 84//235 83//236 85//237
f 73//238 86//239 47//240
f 29//241 46//242 45//243
f 36//244 38//245 37//246
f 16//247 58//248 77//249
f 20//250 84//251 21//252
f 25//253 27//254 24//255
f 87//256 5//257 14//258
f 62//259 61//260 78//261
f 81//262 80//263 60//264
f 28//265 64//266 57//267
f 71//268 86//269 76//270
f 49//271 15//272 10//273
f 85//274 83//275 28//276
f 45//277 44//278 80//279
f 80//280 59//281 45//282
f 17//283 37//284 39//285
f 75//286 43//287 4//288
f 74//289 43//290 75//291
f 87//292 83//293 84//294
f 1//295 38//296 49//297
f 64//298 58//299 57//300
f 65//301 66//302 42//303
f 14//304 83//305 87//306
f 83//307 14//308 13//309
f 54//310 32//311 30//312
f 70//313 53//314 9//315
f 30//316 17//317 31//318
f 11//319 9//320 8//321
f 26//322 25//323 65//324
f 63//325 54//326 79//327
f 31//328 44//329 46//330
f 41//331 65//332 42//333
f 85//334 28//335 57//336
f 53//337 55//338 63//339
f 19//340 33//341 5//342
f 57//343 21//344 85//345
f 7//346 53//347 59//348
f 28//349 27//350 37//351
f 8//352 31//353 18//354
f 25//355 69//356 66//357
f 36//358 41//359 49//360
f 47//361 12//362 72//363
f 22//364 86//365 23//366
f 16//367 77//368 70//369
f 82//370 23//371 73//372
f 42//373 67//374 82//375
f 71//376 76//377 24//378
f 8//379 60//380 44//381
f 54//382 30//383 79//384
f 82//385 48//386 42//387
f 86//388 22//389 76//390
f 82//391 67//392 23//393
f 15//394 11//395 10//396
f 19//397 5//398 20//399
f 49//400 40//401 15//402
f 73//403 6//404 33//405
f 81//406 60//407 59//408
f 40//409 42//410 48//411
f 40//412 49//413 41//414
f 30//415 51//416 79//417
f 6//418 75//419 4//420
f 72//421 74//422 73//423
f 67//424 50//425 23//426
f 77//427 55//428 70//429
f 51//430 34//431 78//432
f 32//433 56//434 64//435
f 31//436 46//437 29//438
f 47//439 86//440 71//441
f 58//442 64//443 77//444
f 73//445 23//446 86//447
f 41//448 36//449 35//450
f 85//451 21//452 84//453
f 87//454 20//455 5//456
f 87//457 84//458 20//459
f 65//460 41//461 35//462
f 43//463 52//464 4//465
f 69//466 67//467 68//468
f 69//469 50//470 67//471
f 59//472 78//473 45//474
f 78//475 34//476 45//477
f 79//478 78//479 63//480
f 18//481 31//482 17//483
f 33//484 82//485 73//486
f 8//487 18//488 2//489
f 54//490 56//491 32//492
f 14//493 4//494 52//495
f 62//496 78//497 59//498
f 64//499 56//500 77//501
f 49//502 38//503 36//504
f 34//505 29//506 45//507
f 44//508 60//509 80//510

