# /tmp/binarydeb/ros-indigo-pr2-description-1.11.14/meshes/gripper_v0/convex/l_finger_tip.obj created by IVCON.
# Original data in /tmp/binarydeb/ros-indigo-pr2-description-1.11.14/meshes/gripper_v0//l_finger_tip.stl.

g IVCON

v -0.022844 0.025054 -0.006282
v -0.019935 0.027230 -0.007669
v -0.016546 0.025928 -0.009289
v -0.019160 0.027700 0.007847
v -0.015416 0.025601 0.009388
v -0.015658 0.027742 0.008943
v -0.022806 0.025062 0.006376
v -0.014510 0.028854 -0.007789
v -0.013725 0.027669 -0.008827
v -0.013413 0.028328 0.007968
v 0.010855 0.004482 0.007950
v 0.010852 0.004554 -0.007814
v 0.009227 0.010105 0.007725
v 0.024411 -0.005447 -0.008542
v 0.024338 -0.001405 -0.007894
v 0.024448 -0.005448 0.008655
v 0.024281 -0.001334 0.007964
v -0.011737 0.017276 0.006250
v -0.011903 0.016996 0.009152
v -0.011095 0.021370 0.009151
v -0.011257 0.021906 0.006250
v -0.014743 0.025313 0.006251
v -0.012886 0.024746 -0.006247
v -0.025956 0.020009 0.006249
v -0.025920 0.019189 -0.006250
v -0.024023 0.014889 -0.006250
v -0.023690 0.014515 0.006250
v 0.008993 0.010449 -0.007854
v 0.022667 -0.001757 -0.009060
v -0.011567 0.023161 -0.009150
v -0.011379 0.017717 -0.006249
v -0.011771 0.017226 -0.009150
v -0.002565 -0.015655 0.009938
v -0.002884 -0.013446 0.011239
v -0.004498 -0.014158 0.009040
v 0.030687 -0.006507 0.004747
v 0.027793 -0.004934 0.006427
v 0.029249 -0.006387 0.007717
v 0.028462 -0.005074 -0.006720
v 0.030674 -0.006703 -0.005112
v 0.029111 -0.015623 0.006400
v 0.028340 -0.015813 -0.007123
v 0.030719 -0.014587 -0.005439
v 0.031007 -0.014298 0.004149
v 0.029400 -0.013879 0.008508
v 0.025448 -0.015821 0.009185
v 0.024861 -0.014207 0.011154
v -0.015243 0.013645 0.009150
v -0.015332 0.013774 0.006250
v 0.009523 0.003696 0.009089
v 0.023620 -0.002291 0.008899
v 0.007483 0.009931 0.009046
v -0.015332 0.013886 -0.006250
v -0.023521 0.014476 -0.006250
v -0.023915 0.014765 -0.006250
v 0.007957 0.009495 -0.009032
v 0.009694 0.003603 -0.009067
v -0.015219 0.013742 -0.009151
v -0.003134 -0.015601 -0.009402
v -0.004504 -0.013507 -0.009556
v -0.004229 -0.007087 0.009029
v -0.002590 -0.007528 0.011046
v 0.025464 -0.007093 0.010806
v 0.027906 -0.007498 -0.009591
v 0.025356 -0.013864 -0.011169
v 0.028814 -0.013802 -0.008944
v 0.024442 -0.015704 -0.009814
v -0.002450 -0.014167 -0.011198
v -0.009527 0.010062 0.009150
v -0.005140 0.003329 0.009150
v -0.004111 -0.005168 0.009141
v -0.003246 -0.005767 -0.008916
v -0.005385 0.004970 -0.009151
v -0.004170 -0.007322 -0.009440
v -0.002285 -0.005609 0.009366
v 0.024064 -0.006870 -0.010949
v -0.002121 -0.006786 -0.010903

vn -0.431053 0.001039 -0.902326
vn -0.431053 0.001039 -0.902326
vn -0.431053 0.001039 -0.902326
vn -0.296319 0.162138 0.941226
vn -0.296319 0.162138 0.941226
vn -0.296319 0.162138 0.941226
vn -0.377737 0.005608 0.925896
vn -0.377737 0.005608 0.925896
vn -0.377737 0.005608 0.925896
vn -0.214138 0.559421 -0.800745
vn -0.214138 0.559421 -0.800745
vn -0.214138 0.559421 -0.800745
vn -0.181577 0.545665 -0.818095
vn -0.181577 0.545665 -0.818095
vn -0.181577 0.545665 -0.818095
vn -0.109427 0.993158 0.040770
vn -0.109427 0.993158 0.040770
vn -0.109427 0.993158 0.040770
vn 0.960506 0.278258 0.001106
vn 0.960506 0.278258 0.001106
vn 0.960506 0.278258 0.001106
vn 0.999828 0.018400 -0.002155
vn 0.999828 0.018400 -0.002155
vn 0.999828 0.018400 -0.002155
vn 0.999149 0.041117 0.003398
vn 0.999149 0.041117 0.003398
vn 0.999149 0.041117 0.003398
vn -0.982625 0.181531 -0.038664
vn -0.982625 0.181531 -0.038664
vn -0.982625 0.181531 -0.038664
vn -0.991910 0.102901 0.074334
vn -0.991910 0.102901 0.074334
vn -0.991910 0.102901 0.074334
vn -0.699339 -0.708822 -0.092172
vn -0.699339 -0.708822 -0.092172
vn -0.699339 -0.708822 -0.092172
vn -0.696429 -0.712726 -0.083718
vn -0.696429 -0.712726 -0.083718
vn -0.696429 -0.712726 -0.083718
vn -0.109662 0.942846 0.314668
vn -0.109662 0.942846 0.314668
vn -0.109662 0.942846 0.314668
vn -0.028022 -0.942651 -0.332601
vn -0.028022 -0.942651 -0.332601
vn -0.028022 -0.942651 -0.332601
vn -0.848636 0.528972 0.002171
vn -0.848636 0.528972 0.002171
vn -0.848636 0.528972 0.002171
vn -0.885157 0.464120 -0.033009
vn -0.885157 0.464120 -0.033009
vn -0.885157 0.464120 -0.033009
vn -0.586468 0.809972 0.001208
vn -0.586468 0.809972 0.001208
vn -0.586468 0.809972 0.001208
vn -0.597224 0.802056 0.005494
vn -0.597224 0.802055 0.005494
vn -0.597224 0.802056 0.005494
vn -0.287188 0.957761 -0.014702
vn -0.287188 0.957761 -0.014702
vn -0.287188 0.957761 -0.014702
vn 0.032420 -0.994611 0.098477
vn 0.032420 -0.994611 0.098477
vn 0.032420 -0.994611 0.098477
vn -0.914822 -0.403671 0.012274
vn -0.914822 -0.403671 0.012274
vn -0.914822 -0.403671 0.012274
vn -0.924215 -0.381217 0.022346
vn -0.924215 -0.381217 0.022346
vn -0.924215 -0.381217 0.022346
vn 0.616422 0.787239 -0.016679
vn 0.616422 0.787239 -0.016679
vn 0.616422 0.787239 -0.016679
vn 0.627083 0.778913 0.007827
vn 0.627083 0.778913 0.007827
vn 0.627083 0.778913 0.007827
vn 0.953683 0.300715 -0.007629
vn 0.953683 0.300715 -0.007629
vn 0.953684 0.300715 -0.007629
vn 0.404234 0.914646 0.004108
vn 0.404234 0.914646 0.004108
vn 0.404234 0.914646 0.004108
vn 0.397494 0.917601 -0.002725
vn 0.397494 0.917601 -0.002725
vn 0.397494 0.917601 -0.002725
vn 0.546323 0.142303 -0.825397
vn 0.546323 0.142303 -0.825397
vn 0.546323 0.142303 -0.825397
vn -0.476232 -0.844572 0.244747
vn -0.476232 -0.844572 0.244747
vn -0.476232 -0.844572 0.244747
vn -0.928594 -0.199012 -0.313220
vn -0.928594 -0.199012 -0.313220
vn -0.928594 -0.199012 -0.313220
vn -0.991159 0.034093 0.128228
vn -0.991159 0.034093 0.128228
vn -0.991159 0.034093 0.128228
vn -0.640669 -0.456104 0.617667
vn -0.640669 -0.456104 0.617667
vn -0.640669 -0.456104 0.617667
vn 0.568462 0.785802 0.243651
vn 0.568462 0.785802 0.243651
vn 0.568462 0.785802 0.243651
vn -0.164136 0.986257 -0.018887
vn -0.164136 0.986257 -0.018887
vn -0.164136 0.986257 -0.018887
vn 0.600614 0.799365 -0.016685
vn 0.600614 0.799365 -0.016685
vn 0.600614 0.799365 -0.016685
vn 0.484291 0.874773 0.015311
vn 0.484291 0.874773 0.015311
vn 0.484291 0.874773 0.015311
vn 0.465743 -0.884806 -0.014174
vn 0.465743 -0.884806 -0.014174
vn 0.465743 -0.884806 -0.014174
vn 0.578790 -0.815445 0.007245
vn 0.578790 -0.815445 0.007245
vn 0.578790 -0.815445 0.007245
vn 0.774445 -0.535468 0.336911
vn 0.774445 -0.535468 0.336911
vn 0.774445 -0.535469 0.336911
vn 0.444872 -0.719023 0.533942
vn 0.444872 -0.719023 0.533942
vn 0.444872 -0.719023 0.533942
vn 0.422775 -0.634743 0.646809
vn 0.422775 -0.634743 0.646809
vn 0.422775 -0.634743 0.646809
vn -0.707216 0.705018 0.052870
vn -0.707216 0.705018 0.052870
vn -0.707216 0.705018 0.052870
vn -0.697568 0.715916 0.029368
vn -0.697568 0.715916 0.029368
vn -0.697568 0.715916 0.029368
vn 0.270914 0.614296 0.741112
vn 0.270914 0.614296 0.741112
vn 0.270914 0.614296 0.741112
vn 0.251162 0.581636 0.773703
vn 0.251162 0.581636 0.773703
vn 0.251162 0.581636 0.773703
vn 0.567481 0.196490 0.799598
vn 0.567481 0.196490 0.799598
vn 0.567481 0.196490 0.799598
vn 0.580074 0.195205 0.790828
vn 0.580074 0.195205 0.790828
vn 0.580074 0.195205 0.790828
vn 0.284924 0.375323 0.882015
vn 0.284924 0.375323 0.882015
vn 0.284924 0.375323 0.882015
vn 0.462030 0.564848 0.683721
vn 0.462030 0.564848 0.683721
vn 0.462030 0.564849 0.683721
vn -0.002186 -0.004328 -0.999988
vn -0.002186 -0.004328 -0.999988
vn -0.002186 -0.004328 -0.999988
vn 0.001751 -0.001680 -0.999997
vn 0.001751 -0.001680 -0.999997
vn 0.001751 -0.001680 -0.999997
vn 0.003515 0.001077 -0.999993
vn 0.003515 0.001077 -0.999993
vn 0.003515 0.001077 -0.999993
vn 0.000017 0.000071 -1.000000
vn 0.000017 0.000071 -1.000000
vn 0.000017 0.000071 -1.000000
vn 0.000040 0.000083 -1.000000
vn 0.000040 0.000083 -1.000000
vn 0.000040 0.000083 -1.000000
vn 0.000228 -0.000054 1.000000
vn 0.000228 -0.000054 1.000000
vn 0.000228 -0.000054 1.000000
vn 0.015333 0.005596 0.999867
vn 0.015333 0.005596 0.999867
vn 0.015333 0.005596 0.999867
vn 0.006645 -0.006757 0.999955
vn 0.006645 -0.006757 0.999955
vn 0.006645 -0.006757 0.999955
vn -0.010881 -0.018359 0.999772
vn -0.010881 -0.018359 0.999772
vn -0.010881 -0.018359 0.999772
vn -0.000032 0.000126 1.000000
vn -0.000032 0.000126 1.000000
vn -0.000032 0.000126 1.000000
vn -0.757916 -0.652352 0.000655
vn -0.757916 -0.652352 0.000655
vn -0.757916 -0.652351 0.000655
vn -0.590337 -0.807139 -0.005456
vn -0.590337 -0.807139 -0.005456
vn -0.590337 -0.807139 -0.005456
vn 0.564906 0.722790 -0.398065
vn 0.564906 0.722790 -0.398064
vn 0.564907 0.722790 -0.398064
vn 0.649688 0.199936 -0.733438
vn 0.649688 0.199936 -0.733438
vn 0.649688 0.199936 -0.733438
vn 0.642649 0.193891 -0.741221
vn 0.642649 0.193891 -0.741221
vn 0.642649 0.193891 -0.741221
vn 0.304946 0.698707 -0.647160
vn 0.304946 0.698707 -0.647160
vn 0.304946 0.698707 -0.647160
vn 0.262981 0.635671 -0.725785
vn 0.262981 0.635671 -0.725785
vn 0.262981 0.635671 -0.725784
vn -0.694550 0.716706 -0.062704
vn -0.694551 0.716706 -0.062704
vn -0.694550 0.716706 -0.062704
vn -0.710514 0.703300 -0.023212
vn -0.710514 0.703300 -0.023212
vn -0.710514 0.703300 -0.023212
vn -0.617173 -0.786666 0.015913
vn -0.617173 -0.786666 0.015913
vn -0.617173 -0.786666 0.015913
vn -0.836017 -0.548377 -0.018923
vn -0.836017 -0.548377 -0.018923
vn -0.836017 -0.548377 -0.018923
vn -0.810760 0.031710 0.584520
vn -0.810760 0.031710 0.584520
vn -0.810760 0.031710 0.584519
vn -0.768264 0.059081 0.637401
vn -0.768264 0.059081 0.637401
vn -0.768264 0.059081 0.637401
vn -0.011289 -0.508544 0.860962
vn -0.011289 -0.508544 0.860962
vn -0.011289 -0.508544 0.860962
vn 0.012547 -0.771309 0.636337
vn 0.012547 -0.771309 0.636337
vn 0.012547 -0.771309 0.636337
vn 0.899157 0.063885 0.432939
vn 0.899157 0.063885 0.432939
vn 0.899157 0.063885 0.432939
vn 0.938595 0.012036 0.344810
vn 0.938595 0.012036 0.344810
vn 0.938595 0.012036 0.344810
vn 0.618775 0.094877 0.779818
vn 0.618775 0.094877 0.779818
vn 0.618775 0.094877 0.779818
vn 0.503524 -0.000485 0.863981
vn 0.503524 -0.000485 0.863981
vn 0.503524 -0.000485 0.863981
vn 0.222630 0.822238 0.523794
vn 0.222630 0.822238 0.523794
vn 0.222630 0.822238 0.523794
vn 0.298941 0.783228 0.545149
vn 0.298940 0.783228 0.545149
vn 0.298940 0.783228 0.545149
vn 0.718028 0.457058 -0.524913
vn 0.718028 0.457058 -0.524913
vn 0.718028 0.457058 -0.524913
vn -0.091742 0.995783 0.000242
vn -0.091742 0.995783 0.000242
vn -0.091742 0.995783 0.000242
vn 0.999150 0.041169 -0.002189
vn 0.999150 0.041169 -0.002189
vn 0.999150 0.041169 -0.002189
vn 0.999518 0.006968 -0.030251
vn 0.999518 0.006968 -0.030251
vn 0.999518 0.006968 -0.030251
vn 0.413614 -0.662728 -0.624272
vn 0.413614 -0.662728 -0.624272
vn 0.413614 -0.662728 -0.624272
vn 0.412102 -0.664097 -0.623816
vn 0.412102 -0.664097 -0.623816
vn 0.412102 -0.664097 -0.623816
vn 0.646289 -0.590263 -0.483631
vn 0.646289 -0.590263 -0.483631
vn 0.646289 -0.590263 -0.483631
vn -0.003774 -0.999989 -0.002706
vn -0.003774 -0.999989 -0.002706
vn -0.003774 -0.999989 -0.002706
vn -0.015230 -0.999715 -0.018370
vn -0.015230 -0.999715 -0.018370
vn -0.015230 -0.999715 -0.018370
vn 0.061906 -0.998027 0.010457
vn 0.061906 -0.998027 0.010457
vn 0.061906 -0.998027 0.010457
vn -0.005959 -0.999981 -0.001575
vn -0.005959 -0.999981 -0.001575
vn -0.005959 -0.999981 -0.001575
vn -0.639388 -0.463606 -0.613394
vn -0.639388 -0.463606 -0.613394
vn -0.639388 -0.463606 -0.613394
vn 0.734202 0.141368 0.664050
vn 0.734202 0.141368 0.664050
vn 0.734202 0.141368 0.664050
vn 0.045877 0.065408 0.996803
vn 0.045877 0.065408 0.996803
vn 0.045877 0.065408 0.996803
vn 0.271979 0.225310 0.935555
vn 0.271979 0.225310 0.935555
vn 0.271979 0.225310 0.935555
vn 0.004106 0.002640 0.999988
vn 0.004106 0.002640 0.999988
vn 0.004106 0.002640 0.999988
vn 0.005126 -0.000806 0.999987
vn 0.005126 -0.000806 0.999986
vn 0.005126 -0.000806 0.999987
vn 0.004184 -0.000495 0.999991
vn 0.004184 -0.000495 0.999991
vn 0.004184 -0.000495 0.999991
vn 0.016261 -0.072592 0.997229
vn 0.016261 -0.072592 0.997229
vn 0.016261 -0.072592 0.997229
vn 0.003569 0.001034 0.999993
vn 0.003569 0.001034 0.999993
vn 0.003569 0.001034 0.999993
vn -0.000303 -0.000294 1.000000
vn -0.000303 -0.000294 1.000000
vn -0.000303 -0.000294 1.000000
vn 0.008962 0.009722 0.999913
vn 0.008962 0.009722 0.999913
vn 0.008962 0.009722 0.999913
vn 0.009683 -0.008953 0.999913
vn 0.009683 -0.008953 0.999913
vn 0.009683 -0.008953 0.999913
vn -0.832849 -0.553478 -0.004942
vn -0.832849 -0.553478 -0.004942
vn -0.832849 -0.553478 -0.004942
vn -0.088352 -0.996049 -0.008955
vn -0.088352 -0.996049 -0.008955
vn -0.088352 -0.996049 -0.008955
vn -0.071875 -0.997411 0.002131
vn -0.071875 -0.997411 0.002131
vn -0.071875 -0.997411 0.002131
vn -0.979755 -0.196082 -0.040389
vn -0.979755 -0.196082 -0.040389
vn -0.979755 -0.196082 -0.040389
vn -0.992734 -0.120304 0.002514
vn -0.992734 -0.120304 0.002514
vn -0.992734 -0.120304 0.002514
vn -0.837281 -0.545473 -0.037691
vn -0.837281 -0.545473 -0.037691
vn -0.837281 -0.545473 -0.037691
vn -0.664586 -0.745041 0.056914
vn -0.664586 -0.745041 0.056914
vn -0.664586 -0.745041 0.056914
vn -0.531074 -0.847310 -0.005179
vn -0.531074 -0.847310 -0.005179
vn -0.531074 -0.847310 -0.005179
vn -0.775213 -0.631685 -0.004359
vn -0.775213 -0.631685 -0.004359
vn -0.775213 -0.631685 -0.004359
vn 0.005810 0.003071 -0.999978
vn 0.005810 0.003071 -0.999978
vn 0.005810 0.003071 -0.999978
vn 0.083760 0.111109 -0.990272
vn 0.083760 0.111109 -0.990272
vn 0.083760 0.111109 -0.990272
vn 0.000181 0.000138 -1.000000
vn 0.000181 0.000138 -1.000000
vn 0.000181 0.000138 -1.000000
vn 0.006937 0.015515 -0.999856
vn 0.006937 0.015515 -0.999856
vn 0.006937 0.015515 -0.999856
vn -0.002115 -0.022236 -0.999751
vn -0.002115 -0.022236 -0.999751
vn -0.002115 -0.022236 -0.999751
vn 0.005875 -0.000249 -0.999983
vn 0.005875 -0.000249 -0.999983
vn 0.005875 -0.000249 -0.999983
vn 0.014934 -0.132083 -0.991126
vn 0.014934 -0.132083 -0.991126
vn 0.014934 -0.132083 -0.991126
vn 0.009381 0.008699 -0.999918
vn 0.009381 0.008699 -0.999918
vn 0.009381 0.008699 -0.999918
vn 0.091306 0.114645 -0.989202
vn 0.091306 0.114645 -0.989202
vn 0.091306 0.114645 -0.989202
vn -0.998532 0.054031 -0.003908
vn -0.998532 0.054031 -0.003908
vn -0.998532 0.054031 -0.003908
vn -0.999279 0.037939 0.001662
vn -0.999279 0.037939 0.001662
vn -0.999279 0.037939 0.001662
vn -0.554051 0.596358 0.580848
vn -0.554051 0.596358 0.580848
vn -0.554051 0.596358 0.580848
vn 0.008039 0.032252 0.999447
vn 0.008039 0.032252 0.999447
vn 0.008039 0.032252 0.999447
vn 0.004411 0.048398 0.998818
vn 0.004411 0.048398 0.998818
vn 0.004411 0.048398 0.998818
vn 0.541153 -0.008373 -0.840883
vn 0.541153 -0.008373 -0.840883
vn 0.541153 -0.008373 -0.840883
vn 0.345403 0.093073 -0.933828
vn 0.345403 0.093073 -0.933828
vn 0.345403 0.093073 -0.933828
vn 0.848218 0.026788 -0.528969
vn 0.848218 0.026788 -0.528969
vn 0.848218 0.026788 -0.528969
vn 0.883172 0.079742 -0.462222
vn 0.883172 0.079742 -0.462222
vn 0.883172 0.079742 -0.462222
vn 0.007330 -0.595255 -0.803503
vn 0.007330 -0.595255 -0.803503
vn 0.007330 -0.595255 -0.803503
vn -0.012287 -0.779189 -0.626669
vn -0.012287 -0.779189 -0.626669
vn -0.012287 -0.779189 -0.626669
vn -0.588823 0.047030 -0.806893
vn -0.588823 0.047030 -0.806893
vn -0.588823 0.047030 -0.806893
vn -0.611776 0.058785 -0.788843
vn -0.611776 0.058786 -0.788843
vn -0.611776 0.058786 -0.788843
vn -0.858420 0.512863 -0.009306
vn -0.858420 0.512863 -0.009306
vn -0.858420 0.512863 -0.009306
vn -0.607781 0.793709 0.025076
vn -0.607781 0.793709 0.025076
vn -0.607781 0.793709 0.025076
vn 0.011238 0.796807 0.604129
vn 0.011238 0.796807 0.604129
vn 0.011238 0.796807 0.604129
vn -0.003808 0.659059 0.752082
vn -0.003808 0.659059 0.752082
vn -0.003808 0.659059 0.752082
vn 0.339789 0.685181 -0.644260
vn 0.339789 0.685181 -0.644260
vn 0.339789 0.685181 -0.644260
vn 0.156258 0.840222 -0.519239
vn 0.156258 0.840222 -0.519240
vn 0.156258 0.840222 -0.519240
vn -0.001667 0.031035 -0.999517
vn -0.001667 0.031035 -0.999517
vn -0.001667 0.031035 -0.999517
vn 0.000630 0.039940 -0.999202
vn 0.000630 0.039940 -0.999202
vn 0.000630 0.039940 -0.999202
vn -0.576785 0.546697 -0.606994
vn -0.576785 0.546697 -0.606994
vn -0.576785 0.546697 -0.606994
vn -0.237355 -0.971198 0.020878
vn -0.237355 -0.971198 0.020878
vn -0.237355 -0.971198 0.020878
vn 0.019630 0.516261 0.856206
vn 0.019630 0.516261 0.856206
vn 0.019630 0.516261 0.856206
vn 0.001848 0.860713 -0.509087
vn 0.001848 0.860713 -0.509087
vn 0.001848 0.860713 -0.509087
vn -0.004100 0.888842 -0.458195
vn -0.004100 0.888842 -0.458195
vn -0.004100 0.888842 -0.458195
vn 0.410238 0.498053 -0.763969
vn 0.410238 0.498053 -0.763969
vn 0.410238 0.498053 -0.763968

f 1//1 2//2 3//3
f 4//4 5//5 6//6
f 4//7 7//8 5//9
f 3//10 8//11 9//12
f 3//13 2//14 8//15
f 8//16 4//17 10//18
f 11//19 12//20 13//21
f 14//22 15//23 16//24
f 16//25 15//26 17//27
f 18//28 19//29 20//30
f 18//31 20//32 21//33
f 21//34 20//35 5//36
f 21//37 5//38 22//39
f 4//40 6//41 10//42
f 1//43 3//44 23//45
f 7//46 1//47 24//48
f 24//49 1//50 25//51
f 7//52 4//53 1//54
f 1//55 4//56 2//57
f 4//58 8//59 2//60
f 5//61 7//62 22//63
f 25//64 26//65 27//66
f 25//67 27//68 24//69
f 8//70 10//71 28//72
f 28//73 10//74 13//75
f 12//76 28//77 13//78
f 12//79 11//80 15//81
f 15//82 11//83 17//84
f 14//85 29//86 15//87
f 23//88 3//89 30//90
f 23//91 30//92 31//93
f 31//94 30//95 32//96
f 33//97 34//98 35//99
f 36//100 37//101 38//102
f 16//103 37//104 39//105
f 36//106 40//107 39//108
f 37//109 36//110 39//111
f 41//112 42//113 43//114
f 41//115 43//116 44//117
f 44//118 45//119 41//120
f 41//121 45//122 46//123
f 45//124 47//125 46//126
f 48//127 19//128 49//129
f 19//130 18//131 49//132
f 50//133 51//134 11//135
f 51//136 17//137 11//138
f 50//139 11//140 13//141
f 50//142 13//143 52//144
f 6//145 52//146 10//147
f 52//148 13//149 10//150
f 25//151 1//152 53//153
f 1//154 31//155 53//156
f 1//157 23//158 31//159
f 25//160 53//161 54//162
f 26//163 25//164 54//165
f 18//166 21//167 22//168
f 7//169 18//170 22//171
f 18//172 7//173 49//174
f 7//175 24//176 49//177
f 49//178 24//179 27//180
f 26//181 55//182 27//183
f 55//184 54//185 27//186
f 28//187 9//188 8//189
f 28//190 12//191 56//192
f 57//193 56//194 12//195
f 12//196 15//197 29//198
f 57//199 12//200 29//201
f 53//202 31//203 58//204
f 31//205 32//206 58//207
f 33//208 35//209 59//210
f 35//211 60//212 59//213
f 35//214 34//215 61//216
f 61//217 34//218 62//219
f 34//220 33//221 47//222
f 47//223 33//224 46//225
f 36//226 38//227 45//228
f 36//229 45//230 44//231
f 45//232 38//233 63//234
f 47//235 45//236 63//237
f 16//238 63//239 37//240
f 38//241 37//242 63//243
f 64//244 39//245 40//246
f 16//247 39//248 14//249
f 40//250 36//251 44//252
f 43//253 40//254 44//255
f 65//256 66//257 42//258
f 65//259 42//260 67//261
f 66//262 43//263 42//264
f 67//265 33//266 59//267
f 42//268 33//269 67//270
f 46//271 42//272 41//273
f 46//274 33//275 42//276
f 59//277 60//278 68//279
f 17//280 51//281 16//282
f 20//283 52//284 6//285
f 5//286 20//287 6//288
f 50//289 69//290 70//291
f 20//292 19//293 52//294
f 50//295 70//296 71//297
f 16//298 51//299 71//300
f 50//301 19//302 69//303
f 69//304 19//305 48//306
f 19//307 50//308 52//309
f 51//310 50//311 71//312
f 49//313 53//314 58//315
f 53//316 49//317 27//318
f 54//319 53//320 27//321
f 72//322 71//323 73//324
f 71//325 70//326 73//327
f 70//328 69//329 73//330
f 73//331 69//332 58//333
f 69//334 48//335 58//336
f 48//337 49//338 58//339
f 32//340 57//341 73//342
f 30//343 9//344 56//345
f 32//346 73//347 58//348
f 57//349 29//350 73//351
f 29//352 72//353 73//354
f 32//355 30//356 56//357
f 29//358 14//359 72//360
f 57//361 32//362 56//363
f 30//364 3//365 9//366
f 60//367 61//368 74//369
f 60//370 35//371 61//372
f 62//373 75//374 61//375
f 62//376 34//377 63//378
f 34//379 47//380 63//381
f 66//382 65//383 64//384
f 65//385 76//386 64//387
f 64//388 40//389 43//390
f 66//391 64//392 43//393
f 65//394 67//395 68//396
f 68//397 67//398 59//399
f 60//400 74//401 77//402
f 68//403 60//404 77//405
f 74//406 61//407 72//408
f 61//409 75//410 72//411
f 75//412 63//413 16//414
f 75//415 62//416 63//417
f 39//418 64//419 76//420
f 39//421 76//422 14//423
f 76//424 65//425 77//426
f 65//427 68//428 77//429
f 74//430 72//431 77//432
f 75//433 71//434 72//435
f 75//436 16//437 71//438
f 14//439 76//440 77//441
f 14//442 77//443 72//444
f 28//445 56//446 9//447

