# /tmp/binarydeb/ros-indigo-pr2-description-1.11.14/meshes/forearm_v0/convex/wrist_flex.obj created by IVCON.
# Original data in /tmp/binarydeb/ros-indigo-pr2-description-1.11.14/meshes/forearm_v0//wrist_flex.stl.

g IVCON

v 0.015306 -0.020174 0.033690
v 0.002395 -0.020494 0.036761
v 0.025924 -0.020759 0.026010
v -0.036776 -0.019491 0.003960
v -0.037009 -0.019248 -0.001288
v -0.036360 -0.021329 0.003627
v -0.011129 0.020431 -0.035064
v 0.020798 0.020403 -0.039483
v 0.015279 0.019890 -0.040387
v -0.009293 -0.020190 0.035882
v -0.021675 -0.020536 0.029651
v -0.036890 0.020309 -0.003096
v -0.033796 0.020781 -0.014615
v -0.033610 -0.020593 -0.015526
v -0.027081 -0.019331 -0.025534
v -0.029881 0.018840 -0.022005
v 0.015515 -0.019460 -0.040505
v 0.000075 0.018643 0.037003
v 0.000965 0.020594 0.036624
v -0.036978 -0.009023 -0.001285
v -0.036977 -0.000341 0.002175
v -0.036146 0.021016 0.003743
v -0.036977 0.009022 -0.001285
v -0.036815 -0.001077 -0.003814
v -0.000089 0.018634 0.037421
v -0.035888 0.021242 0.003921
v -0.022212 0.020518 -0.029461
v -0.036783 0.019185 0.004000
v -0.034442 0.019895 0.014217
v -0.011167 -0.019464 -0.035395
v -0.019323 -0.019563 -0.031574
v -0.016819 -0.020830 -0.032542
v 0.027139 0.020591 0.024086
v 0.027410 -0.019744 0.023720
v 0.027544 -0.020967 -0.000359
v 0.027535 0.021054 -0.002105
v -0.036685 -0.020555 0.003909
v -0.029633 -0.020763 0.021809
v -0.033930 -0.019982 0.014958
v -0.036755 0.019522 0.004003
v 0.013793 0.020253 0.034290
v -0.036977 -0.019228 -0.001291
v -0.036899 -0.020461 -0.001638
v 0.027362 -0.019866 -0.026099
v 0.025808 -0.020644 -0.033820
v 0.027282 0.020019 -0.028186
v 0.023264 0.020378 0.028642
v 0.025457 0.020663 -0.034743
v -0.015635 0.020087 0.033634
v 0.018785 -0.020519 -0.040006
v 0.023443 -0.020055 -0.037653
v -0.036811 0.019187 0.003750
v -0.027825 0.020847 0.023934
v -0.036978 -0.009000 -0.001285
v -0.036978 0.009000 -0.001285

vn 0.062905 -0.984781 0.162014
vn 0.062905 -0.984781 0.162014
vn 0.062905 -0.984781 0.162014
vn -0.973557 -0.226082 0.032768
vn -0.973557 -0.226082 0.032768
vn -0.973557 -0.226082 0.032768
vn -0.040152 0.954283 -0.296196
vn -0.040152 0.954283 -0.296196
vn -0.040152 0.954283 -0.296196
vn 0.017591 -0.999634 0.020548
vn 0.017591 -0.999634 0.020548
vn 0.017591 -0.999634 0.020548
vn -0.965769 0.001368 -0.259400
vn -0.965769 0.001368 -0.259400
vn -0.965769 0.001368 -0.259400
vn -0.030500 -0.997682 0.060835
vn -0.030500 -0.997682 0.060835
vn -0.030500 -0.997682 0.060835
vn -0.836878 -0.010798 -0.547283
vn -0.836878 -0.010798 -0.547283
vn -0.836878 -0.010798 -0.547283
vn 0.161288 0.003926 -0.986900
vn 0.161288 0.003926 -0.986900
vn 0.161288 0.003926 -0.986900
vn 0.361798 0.015681 0.932124
vn 0.361798 0.015681 0.932124
vn 0.361798 0.015681 0.932124
vn -0.999967 0.003055 -0.007481
vn -0.999967 0.003055 -0.007481
vn -0.999967 0.003055 -0.007481
vn -0.356316 0.932590 -0.057570
vn -0.356316 0.932590 -0.057570
vn -0.356316 0.932590 -0.057570
vn -0.998341 -0.001570 -0.057565
vn -0.998341 -0.001570 -0.057565
vn -0.998341 -0.001570 -0.057565
vn -0.075503 -0.021625 0.996911
vn -0.075503 -0.021625 0.996911
vn -0.075503 -0.021625 0.996911
vn -0.010806 0.999601 -0.026097
vn -0.010806 0.999601 -0.026097
vn -0.010806 0.999601 -0.026097
vn 0.929341 0.052836 0.365423
vn 0.929341 0.052836 0.365423
vn 0.929341 0.052836 0.365424
vn -0.899639 0.398502 0.178452
vn -0.899639 0.398502 0.178452
vn -0.899639 0.398502 0.178452
vn -0.451111 0.007841 -0.892434
vn -0.451111 0.007841 -0.892434
vn -0.451111 0.007841 -0.892434
vn -0.418545 -0.141794 -0.897059
vn -0.418545 -0.141794 -0.897059
vn -0.418545 -0.141794 -0.897059
vn 0.999964 0.006673 0.005229
vn 0.999964 0.006673 0.005229
vn 0.999964 0.006673 0.005229
vn 0.000937 0.999773 -0.021290
vn 0.000937 0.999773 -0.021290
vn 0.000937 0.999773 -0.021290
vn -0.397423 -0.905942 0.146030
vn -0.397423 -0.905942 0.146030
vn -0.397423 -0.905942 0.146030
vn -0.999236 0.013555 0.036656
vn -0.999236 0.013555 0.036656
vn -0.999236 0.013555 0.036656
vn 0.132679 -0.019625 0.990965
vn 0.132679 -0.019625 0.990965
vn 0.132679 -0.019625 0.990965
vn 0.179301 0.009501 0.983748
vn 0.179301 0.009501 0.983748
vn 0.179301 0.009501 0.983748
vn 0.999885 0.000828 0.015164
vn 0.999885 0.000828 0.015164
vn 0.999885 0.000828 0.015164
vn -0.975389 0.000116 -0.220493
vn -0.975389 0.000116 -0.220493
vn -0.975389 0.000116 -0.220493
vn -0.061955 -0.996961 -0.047227
vn -0.061955 -0.996961 -0.047227
vn -0.061955 -0.996961 -0.047227
vn 0.980467 -0.008307 -0.196509
vn 0.980467 -0.008307 -0.196509
vn 0.980467 -0.008307 -0.196509
vn -0.996945 -0.004435 -0.077975
vn -0.996945 -0.004435 -0.077975
vn -0.996945 -0.004435 -0.077975
vn 0.042656 0.995135 0.088805
vn 0.042656 0.995135 0.088805
vn 0.042656 0.995135 0.088805
vn 0.999953 -0.000205 -0.009717
vn 0.999953 -0.000205 -0.009717
vn 0.999953 -0.000205 -0.009717
vn 0.608734 -0.792174 0.043629
vn 0.608734 -0.792174 0.043629
vn 0.608734 -0.792174 0.043629
vn -0.001074 0.999844 -0.017634
vn -0.001074 0.999844 -0.017634
vn -0.001074 0.999844 -0.017634
vn -0.362468 -0.865558 -0.345582
vn -0.362468 -0.865558 -0.345582
vn -0.362468 -0.865558 -0.345581
vn -0.826455 -0.463071 0.320213
vn -0.826455 -0.463071 0.320213
vn -0.826455 -0.463071 0.320213
vn 0.029840 0.996951 0.072103
vn 0.029840 0.996951 0.072103
vn 0.029840 0.996951 0.072103
vn 0.456697 0.888735 -0.039727
vn 0.456697 0.888735 -0.039727
vn 0.456697 0.888735 -0.039727
vn -0.448999 -0.020840 0.893290
vn -0.448999 -0.020840 0.893290
vn -0.448999 -0.020840 0.893290
vn -0.130082 -0.721694 -0.679880
vn -0.130082 -0.721694 -0.679880
vn -0.130082 -0.721694 -0.679880
vn -0.171690 0.448870 0.876948
vn -0.171690 0.448870 0.876948
vn -0.171690 0.448870 0.876948
vn 0.000150 -0.999687 0.025035
vn 0.000150 -0.999687 0.025035
vn 0.000150 -0.999687 0.025035
vn -0.999007 -0.006395 0.044100
vn -0.999007 -0.006395 0.044100
vn -0.999007 -0.006395 0.044100
vn 0.712674 0.014858 -0.701338
vn 0.712674 0.014858 -0.701338
vn 0.712674 0.014858 -0.701338
vn 0.231504 -0.005764 0.972817
vn 0.231504 -0.005764 0.972817
vn 0.231504 -0.005764 0.972817
vn -0.974507 -0.011271 0.224074
vn -0.974507 -0.011271 0.224074
vn -0.974507 -0.011271 0.224074
vn -0.197443 0.008331 -0.980279
vn -0.197443 0.008331 -0.980279
vn -0.197443 0.008331 -0.980279
vn 0.004646 0.999832 0.017749
vn 0.004646 0.999832 0.017749
vn 0.004646 0.999832 0.017749
vn -0.993854 -0.000480 0.110695
vn -0.993854 -0.000480 0.110695
vn -0.993854 -0.000480 0.110695
vn -0.383863 0.907120 0.172573
vn -0.383863 0.907120 0.172573
vn -0.383863 0.907120 0.172573
vn -0.527042 -0.540013 -0.656211
vn -0.527042 -0.540013 -0.656211
vn -0.527042 -0.540013 -0.656211
vn -0.610379 0.624472 -0.487310
vn -0.610379 0.624472 -0.487310
vn -0.610379 0.624472 -0.487310
vn -0.882967 0.006360 -0.469393
vn -0.882967 0.006360 -0.469393
vn -0.882967 0.006360 -0.469393
vn 0.761555 0.007786 0.648053
vn 0.761555 0.007786 0.648053
vn 0.761555 0.007786 0.648053
vn 0.585504 -0.013998 0.810548
vn 0.585504 -0.013998 0.810548
vn 0.585504 -0.013998 0.810548
vn -0.826835 0.007206 0.562398
vn -0.826835 0.007206 0.562398
vn -0.826835 0.007206 0.562398
vn -0.614381 -0.002679 -0.789005
vn -0.614381 -0.002679 -0.789005
vn -0.614381 -0.002679 -0.789005
vn -0.698636 0.014877 -0.715322
vn -0.698636 0.014877 -0.715323
vn -0.698636 0.014877 -0.715323
vn 0.006586 -0.999926 -0.010238
vn 0.006586 -0.999926 -0.010238
vn 0.006586 -0.999926 -0.010238
vn -0.046656 0.998871 -0.008993
vn -0.046656 0.998871 -0.008993
vn -0.046656 0.998871 -0.008993
vn 0.005048 -0.999938 -0.009916
vn 0.005048 -0.999938 -0.009916
vn 0.005048 -0.999938 -0.009916
vn 0.999974 0.001651 -0.006983
vn 0.999974 0.001651 -0.006983
vn 0.999974 0.001651 -0.006983
vn 0.006182 -0.999947 0.008258
vn 0.006182 -0.999947 0.008258
vn 0.006182 -0.999947 0.008258
vn -0.454626 -0.885128 -0.099317
vn -0.454626 -0.885128 -0.099317
vn -0.454626 -0.885128 -0.099317
vn 0.006237 0.999899 0.012780
vn 0.006237 0.999899 0.012780
vn 0.006237 0.999899 0.012780
vn 0.838781 0.000699 0.544469
vn 0.838781 0.000699 0.544469
vn 0.838781 0.000699 0.544469
vn 0.000084 0.999806 0.019711
vn 0.000084 0.999806 0.019711
vn 0.000084 0.999806 0.019711
vn 0.593810 -0.803681 -0.038561
vn 0.593810 -0.803681 -0.038561
vn 0.593810 -0.803681 -0.038561
vn -0.056964 0.987213 0.148879
vn -0.056964 0.987213 0.148879
vn -0.056964 0.987213 0.148879
vn 0.238723 -0.926861 -0.289726
vn 0.238723 -0.926861 -0.289725
vn 0.238723 -0.926861 -0.289726
vn -0.122096 -0.779126 -0.614862
vn -0.122096 -0.779126 -0.614862
vn -0.122096 -0.779126 -0.614862
vn -0.990107 -0.113358 0.082689
vn -0.990107 -0.113358 0.082689
vn -0.990107 -0.113358 0.082689
vn 0.963451 0.002197 -0.267877
vn 0.963451 0.002197 -0.267877
vn 0.963451 0.002197 -0.267877
vn -0.920434 0.386222 0.060287
vn -0.920434 0.386222 0.060287
vn -0.920434 0.386222 0.060287
vn -0.964819 -0.094224 0.245450
vn -0.964819 -0.094224 0.245450
vn -0.964819 -0.094224 0.245450
vn -0.620591 0.779017 -0.089435
vn -0.620591 0.779017 -0.089435
vn -0.620591 0.779017 -0.089435
vn -0.003315 -0.999471 0.032341
vn -0.003315 -0.999471 0.032341
vn -0.003315 -0.999471 0.032341
vn -0.989800 0.138316 0.034125
vn -0.989800 0.138316 0.034125
vn -0.989800 0.138316 0.034125
vn 0.152553 0.005119 -0.988282
vn 0.152553 0.005119 -0.988282
vn 0.152553 0.005119 -0.988282
vn -0.000670 -0.999811 -0.019406
vn -0.000670 -0.999811 -0.019406
vn -0.000670 -0.999811 -0.019406
vn -0.997943 0.000000 -0.064107
vn -0.997943 0.000000 -0.064107
vn -0.997943 0.000000 -0.064107
vn -0.188096 0.001812 -0.982149
vn -0.188096 0.001812 -0.982149
vn -0.188096 0.001812 -0.982149
vn -0.092922 0.000610 -0.995673
vn -0.092922 0.000610 -0.995673
vn -0.092922 0.000610 -0.995673
vn 0.850711 -0.004524 -0.525614
vn 0.850711 -0.004524 -0.525614
vn 0.850711 -0.004524 -0.525614
vn -0.001486 0.999852 -0.017152
vn -0.001486 0.999852 -0.017152
vn -0.001486 0.999852 -0.017152
vn -0.701791 -0.005887 0.712358
vn -0.701791 -0.005887 0.712358
vn -0.701791 -0.005887 0.712358
vn 0.512078 0.006430 0.858915
vn 0.512078 0.006430 0.858915
vn 0.512078 0.006430 0.858915
vn -0.235148 0.017217 0.971807
vn -0.235148 0.017217 0.971807
vn -0.235148 0.017217 0.971807
vn -0.622009 0.015708 0.782852
vn -0.622009 0.015708 0.782852
vn -0.622009 0.015708 0.782852
vn -0.968169 -0.007791 0.250176
vn -0.968169 -0.007791 0.250176
vn -0.968169 -0.007791 0.250176
vn -0.981062 0.007723 0.193537
vn -0.981062 0.007723 0.193537
vn -0.981062 0.007723 0.193537
vn -0.847189 -0.001010 0.531291
vn -0.847189 -0.001010 0.531291
vn -0.847189 -0.001010 0.531291
vn -1.000000 0.000000 0.000187
vn -1.000000 0.000000 0.000187
vn -1.000000 0.000000 0.000187
vn -0.999890 0.007467 0.012792
vn -0.999890 0.007467 0.012792
vn -0.999890 0.007467 0.012792
vn 0.998557 0.001701 0.053672
vn 0.998557 0.001701 0.053672
vn 0.998557 0.001701 0.053672
vn -0.973059 -0.008025 -0.230415
vn -0.973059 -0.008025 -0.230415
vn -0.973059 -0.008025 -0.230415
vn -0.424342 0.017152 -0.905339
vn -0.424342 0.017152 -0.905339
vn -0.424342 0.017152 -0.905339
vn 0.451736 -0.010831 -0.892086
vn 0.451736 -0.010831 -0.892086
vn 0.451736 -0.010831 -0.892086

f 1//1 2//2 3//3
f 4//4 5//5 6//6
f 7//7 8//8 9//9
f 10//10 11//11 6//12
f 12//13 13//14 14//15
f 10//16 6//17 2//18
f 15//19 14//20 16//21
f 8//22 17//23 9//24
f 18//25 2//26 19//27
f 20//28 5//29 21//30
f 13//31 12//32 22//33
f 23//34 12//35 24//36
f 2//37 25//38 10//39
f 26//40 27//41 13//42
f 18//43 25//44 2//45
f 28//46 29//47 26//48
f 27//49 7//50 30//51
f 31//52 30//53 32//54
f 33//55 34//56 35//57
f 26//58 36//59 27//60
f 37//61 38//62 39//63
f 12//64 23//65 21//66
f 26//67 40//68 28//69
f 41//70 19//71 2//72
f 33//73 35//74 36//75
f 42//76 20//77 43//78
f 32//79 6//80 14//81
f 44//82 45//83 46//84
f 24//85 43//86 20//87
f 33//88 19//89 41//90
f 36//91 35//92 46//93
f 35//94 34//95 3//96
f 36//97 7//98 27//99
f 32//100 14//101 15//102
f 6//103 38//104 37//105
f 47//106 33//107 41//108
f 36//109 46//110 48//111
f 11//112 10//113 49//114
f 50//115 30//116 17//117
f 25//118 19//119 49//120
f 6//121 3//122 2//123
f 5//124 4//125 21//126
f 8//127 48//128 51//129
f 41//130 2//131 1//132
f 21//133 29//134 28//135
f 30//136 7//137 9//138
f 36//139 26//140 33//141
f 28//142 52//143 21//144
f 29//145 53//146 26//147
f 15//148 31//149 32//150
f 16//151 13//152 27//153
f 13//154 16//155 14//156
f 47//157 3//158 33//159
f 47//160 1//161 3//162
f 53//163 29//164 38//165
f 31//166 15//167 27//168
f 16//169 27//170 15//171
f 50//172 6//173 32//174
f 48//175 8//176 36//177
f 6//178 45//179 35//180
f 35//181 44//182 46//183
f 35//184 3//185 6//186
f 43//187 14//188 6//189
f 26//190 19//191 33//192
f 33//193 3//194 34//195
f 19//196 26//197 53//198
f 45//199 44//200 35//201
f 49//202 19//203 53//204
f 45//205 50//206 51//207
f 50//208 32//209 30//210
f 6//211 5//212 43//213
f 46//214 45//215 48//216
f 40//217 22//218 12//219
f 37//220 39//221 4//222
f 13//223 22//224 26//225
f 6//226 11//227 38//228
f 40//229 12//230 52//231
f 50//232 17//233 8//234
f 50//235 45//236 6//237
f 54//238 55//239 24//240
f 30//241 9//242 17//243
f 42//244 5//245 20//246
f 45//247 51//248 48//249
f 36//250 8//251 7//252
f 38//253 11//254 53//255
f 47//256 41//257 1//258
f 25//259 49//260 10//261
f 53//262 11//263 49//264
f 39//265 29//266 4//267
f 4//268 29//269 21//270
f 29//271 39//272 38//273
f 55//274 54//275 21//276
f 21//277 52//278 12//279
f 43//280 24//281 12//282
f 14//283 43//284 12//285
f 30//286 31//287 27//288
f 8//289 51//290 50//291

